<svg xmlns="http://www.w3.org/2000/svg" viewBox="0 0 1080 1080"><defs><style>.a{fill:#fff;}.b{fill:#371a45;}.c{opacity:0.35;}.d{opacity:0.7;}.e{fill:#111a28;}.f{fill:#f92323;}.g{opacity:0.5;}.h{fill:#c5d3e2;}.i{opacity:0.6;}.j{fill:#3aaaff;}.k{fill:#db2c2c;}.l{fill:#22a7f0;}.m{opacity:0.15;}.n{opacity:0.3;}.o{fill:#fff2bd;}</style></defs><title>1974 [Converted]</title><path class="a" d="M845.89,775.66a309.91,309.91,0,0,0-45.76-80.79V663c0-15.92-6.56-31.07-18.55-43.07l0.4-3.37A43.81,43.81,0,0,0,771,582a48.42,48.42,0,0,0-36.25-16h-1.39q1.76-2.25,3.46-4.54c1.44-1.61,2.62-3.06,3.61-4.4a220.32,220.32,0,0,0,33.2-65.48,62,62,0,0,0,53-64.27l-2.15-45.64a62,62,0,0,0-59.61-59A242,242,0,0,0,548.52,176.28c-2,0-4.08-.08-6.1-0.08A241.83,241.83,0,0,0,312.71,343.82a62,62,0,0,0-53.87,64.4L261,453.86a61.91,61.91,0,0,0,59.82,59.06,241.06,241.06,0,0,0,31.37,53H351a48.42,48.42,0,0,0-36.25,16,43.83,43.83,0,0,0-11.21,32.79,69.3,69.3,0,0,0-12,12.39A59.46,59.46,0,0,0,279.31,663v40.66a308,308,0,0,0-39.12,72c-14.92,39.41-15.58,70.36-2,92h-4.56a495.75,495.75,0,0,0,59.46,42.29c75.52-1.4,160.24-2.19,249.75-2.19s174.23,0.79,249.75,2.19a495.71,495.71,0,0,0,59.46-42.29h-4.21C861.47,846,860.81,815.07,845.89,775.66Z"/><path class="a" d="M786.92,663V828.36A45.14,45.14,0,0,1,781.35,850c-9.79,18.16-31.49,30.86-56.54,30.86H354.64c-21.06,0-39.75-9-51-22.61a46.79,46.79,0,0,1-11.12-29.88V663a46.32,46.32,0,0,1,9.64-28c11-14.72,30.45-24.53,52.47-24.53H724.81a70.61,70.61,0,0,1,8.79.54C763.64,614.7,786.92,636.68,786.92,663Z"/><path class="b" d="M724.81,886.42H354.64c-21.91,0-42.58-9.21-55.29-24.64A52.19,52.19,0,0,1,287,828.36V663a51.89,51.89,0,0,1,10.76-31.31C310.25,615,331.53,605,354.64,605H724.81a76.58,76.58,0,0,1,9.48.58c33.16,4,58.19,28.71,58.19,57.48V828.36a50.42,50.42,0,0,1-6.24,24.3C775.18,873.16,751.07,886.42,724.81,886.42ZM354.64,616.09c-19.62,0-37.57,8.34-48,22.3A40.87,40.87,0,0,0,298.09,663V828.36a41.2,41.2,0,0,0,9.85,26.34c10.62,12.9,28.08,20.59,46.7,20.59H724.81c22.22,0,42.5-11,51.65-27.93a39.42,39.42,0,0,0,4.9-19V663c0-23.14-20.82-43.1-48.43-46.43a65.48,65.48,0,0,0-8.12-.5H354.64Z"/><path class="a" d="M544.43,564.57c126.47,20.91,244.44,97.74,289.1,215.77,36.1,95.38-29.46,100.52-29.46,100.52H282s-65.56-5.14-29.46-100.52c44.66-118,162.63-194.85,289.1-215.77"/><g class="c"><path class="b" d="M804.06,880.86H282s-45.87-3.6-39.73-60.59q0.13,1,.29,2c4.41,27.9,42.4,33.36,55.08,8.12L303.38,819H782.31l6.15,12c12.81,25.06,50.4,19.47,55-8.29q0.2-1.2.36-2.46C849.94,877.26,804.06,880.86,804.06,880.86Z"/></g><path class="a" d="M260.64,823.75s25-75.31,92.23-75.52c62.06-.2,85.75,30.76,71.21,73.26-7.24,21.15-84.54,41.15-120.71-2.49"/><g class="c"><path class="b" d="M424.09,821.49c-7.25,21.15-84.54,41.14-120.71-2.49h0a9.57,9.57,0,0,1,14.87-7.94c39.12,25.5,99.48,7.83,105.85-10.75a81,81,0,0,0,3.12-11.82C429.27,798.25,428.22,809.41,424.09,821.49Z"/></g><path class="b" d="M258.88,823.16C259,814.32,262,806.38,266,799a101.12,101.12,0,0,1,14.48-20.65A129.18,129.18,0,0,1,299,760.9a93.82,93.82,0,0,1,22.47-12.48,86.13,86.13,0,0,1,25.18-5.53l6.43-.23c2.08,0,4.16,0,6.25.1,4.17,0.17,8.35.41,12.53,0.91a106.34,106.34,0,0,1,24.87,5.65A63.2,63.2,0,0,1,419.28,763a46.8,46.8,0,0,1,13.19,23.6,61.49,61.49,0,0,1-.3,26.42c-0.41,2.14-1,4.2-1.58,6.29l-1,3.07-0.24.77c-0.08.26-.26,0.65-0.4,1l-0.9,2c-2.8,4.81-6.53,7.85-10.26,10.42-7.55,5-15.66,8-23.88,10.26a111.62,111.62,0,0,1-50.6,1.49c-2.1-.45-4.19-0.93-6.25-1.56s-4.11-1.29-6.15-2-4-1.58-6.07-2.34c-2-.94-4-1.72-5.91-2.81a37.59,37.59,0,0,1-5.54-3.54,35,35,0,0,1-4.94-4.36,25.8,25.8,0,0,1-6.54-11.51,2,2,0,0,1,2.65-2.44l0.21,0.07a40.15,40.15,0,0,1,5.64,2.68c1.8,0.87,3.31,2,5,2.89,0.8,0.48,1.58,1,2.34,1.52s1.61,0.93,2.38,1.44,1.53,1,2.34,1.48,1.59,0.94,2.37,1.44c6.2,4.1,13.46,6.56,20.84,8.15A100.63,100.63,0,0,0,391.11,836c7.33-2,14.58-4.73,20.48-8.71a22.11,22.11,0,0,0,6.74-6.55c0.1-.27.21-0.53,0.33-0.78a3.38,3.38,0,0,0,.2-0.43l0.21-.68,0.86-2.71c0.48-1.82,1-3.63,1.37-5.46a50.44,50.44,0,0,0,.33-21.66A35.59,35.59,0,0,0,411.51,771a52.16,52.16,0,0,0-18.61-11.22,95.34,95.34,0,0,0-22.28-5c-3.84-.46-7.73-0.69-11.63-0.85l-5.87-.09-5.68.21a75,75,0,0,0-22,4.82,87.25,87.25,0,0,0-36.23,26.91c-2.39,3-4.68,6.12-6.84,9.33s-4.33,6.41-6.42,9.68c-4.14,6.58-8.23,13.22-13.56,19.58l-0.09.11A1.94,1.94,0,0,1,258.88,823.16Z"/><path class="a" d="M825,823.75s-25-75.31-92.23-75.52c-62.06-.2-85.75,30.76-71.21,73.26,7.24,21.15,84.54,41.15,120.71-2.49"/><path class="a" d="M825,823.75s-25-75.31-92.23-75.52c-62.06-.2-85.75,30.76-71.21,73.26,7.24,21.15,84.54,41.15,120.71-2.49Z"/><g class="c"><path class="b" d="M782.31,819c-36.17,43.63-113.47,23.64-120.71,2.49-4.13-12.09-5.17-23.24-3.12-33a81,81,0,0,0,3.12,11.82c6.36,18.57,66.73,36.25,105.85,10.75A9.57,9.57,0,0,1,782.31,819h0Z"/></g><path class="b" d="M823.29,824.33c-5.32-6.36-9.42-13-13.56-19.58-2.09-3.27-4.22-6.51-6.42-9.68s-4.45-6.31-6.84-9.33a87.25,87.25,0,0,0-36.23-26.91,75,75,0,0,0-22-4.82l-5.68-.21-5.87.09c-3.9.16-7.79,0.38-11.63,0.85a95.34,95.34,0,0,0-22.28,5A52.17,52.17,0,0,0,674.19,771a35.59,35.59,0,0,0-10.12,18.1,50.44,50.44,0,0,0,.33,21.66c0.34,1.83.89,3.65,1.37,5.46l0.86,2.71,0.21,0.68a3.38,3.38,0,0,0,.2.43c0.12,0.25.23,0.51,0.33,0.78a22.11,22.11,0,0,0,6.74,6.55c5.9,4,13.15,6.73,20.48,8.71A100.64,100.64,0,0,0,740,837.41c7.38-1.59,14.64-4,20.84-8.15,0.78-.5,1.56-1,2.37-1.44s1.54-1,2.34-1.48,1.59-1,2.38-1.44,1.53-1,2.34-1.52c1.66-.91,3.17-2,5-2.89a40.15,40.15,0,0,1,5.64-2.68l0.21-.07a2,2,0,0,1,2.64,2.44,25.8,25.8,0,0,1-6.54,11.51,35.07,35.07,0,0,1-4.94,4.36,37.62,37.62,0,0,1-5.54,3.54c-1.9,1.09-4,1.87-5.91,2.81-2,.76-4,1.64-6.07,2.34s-4.07,1.46-6.15,2-4.15,1.11-6.25,1.56a111.62,111.62,0,0,1-50.6-1.49c-8.23-2.24-16.34-5.21-23.88-10.26-3.73-2.58-7.46-5.61-10.26-10.42l-0.9-2c-0.13-.32-0.31-0.71-0.4-1l-0.24-.77-1-3.07c-0.56-2.08-1.17-4.15-1.58-6.29a61.49,61.49,0,0,1-.3-26.42A46.81,46.81,0,0,1,666.41,763a63.19,63.19,0,0,1,22.54-13.7,106.33,106.33,0,0,1,24.87-5.65c4.18-.5,8.36-0.75,12.53-0.91,2.09-.07,4.17-0.06,6.25-0.1L739,742.9a86.14,86.14,0,0,1,25.18,5.53,93.81,93.81,0,0,1,22.47,12.48,129.21,129.21,0,0,1,18.57,17.41A101.1,101.1,0,0,1,819.73,799c3.92,7.41,6.94,15.36,7.08,24.2a1.94,1.94,0,0,1-3.42,1.28Z"/><path class="b" d="M804.29,886.42l-522.71,0c-1-.07-23.72-2.08-36.78-22.67-12.37-19.5-11.51-48.22,2.55-85.37C289.87,666,402.29,582,540.74,559.08a26.08,26.08,0,0,0,4.6,0C683.79,582,796.21,666,838.74,778.37c14.06,37.15,14.92,65.88,2.55,85.37-13.06,20.58-35.82,22.59-36.78,22.66Zm-260-11.12H803.81c2-.21,18.58-2.4,28.16-17.65,10.16-16.16,8.9-42.21-3.64-75.35-41.13-108.67-150.26-190-284.81-212.25L543,570l-0.49.1C408,592.3,298.87,673.63,257.75,782.31c-12.54,33.14-13.8,59.19-3.64,75.34,9.56,15.21,26.09,17.43,28.17,17.65h262Z"/><path class="a" d="M766.95,478.88h0a4.65,4.65,0,0,1-4.86-4.43l-6.3-133.83a4.65,4.65,0,0,1,4.43-4.86h0a48.8,48.8,0,0,1,51,46.45l2.15,45.63A48.8,48.8,0,0,1,766.95,478.88Z"/><path class="b" d="M766.73,479.88a5.66,5.66,0,0,1-5.64-5.39l-6.3-133.83a5.66,5.66,0,0,1,5.38-5.91,49.84,49.84,0,0,1,52.08,47.4l2.15,45.63A49.79,49.79,0,0,1,767,479.88h-0.27Zm-4.2-143.18q-1.13,0-2.27.05a3.66,3.66,0,0,0-3.48,3.82l6.3,133.83a3.67,3.67,0,0,0,3.82,3.48h0a47.85,47.85,0,0,0,45.49-50l-2.15-45.63A47.86,47.86,0,0,0,762.53,336.71Z"/><g class="c"><path class="b" d="M812.39,406.44l1,21.4a48.82,48.82,0,0,1-46.45,51,4.66,4.66,0,0,1-4.87-4.44l-1.69-35.58a4.66,4.66,0,0,0,4.36,2.56l3.17-.16A48.76,48.76,0,0,0,812.39,406.44Z"/></g><path class="b" d="M766.72,484.45a10.23,10.23,0,0,1-10.2-9.73l-6.3-133.82a10.23,10.23,0,0,1,9.72-10.68,54.43,54.43,0,0,1,56.86,51.74L819,427.58a54.42,54.42,0,0,1-51.74,56.86h-0.49Zm-5.34-143.16,6.22,132a43.28,43.28,0,0,0,40.24-45.17l-2.15-45.63A43.29,43.29,0,0,0,761.38,341.29Z"/><path class="a" d="M318.48,356.57h0a4.65,4.65,0,0,1,4.86,4.43l6.3,133.83a4.65,4.65,0,0,1-4.43,4.86h0a48.8,48.8,0,0,1-51-46.45L272,407.6A48.8,48.8,0,0,1,318.48,356.57Z"/><path class="b" d="M322.9,500.74a49.86,49.86,0,0,1-49.71-47.45L271,407.65a49.79,49.79,0,0,1,47.4-52.08h0a5.65,5.65,0,0,1,5.91,5.38l6.3,133.83a5.66,5.66,0,0,1-5.38,5.91C324.48,500.72,323.69,500.74,322.9,500.74Zm-4.37-143.17a47.85,47.85,0,0,0-45.49,50l2.15,45.63a47.86,47.86,0,0,0,50,45.5,3.66,3.66,0,0,0,3.48-3.82L322.35,361a3.67,3.67,0,0,0-3.82-3.48h0Z"/><g class="c"><path class="b" d="M327.91,457.69l1.74,37.13a4.66,4.66,0,0,1-4.44,4.87,48.77,48.77,0,0,1-51-46.44L273.28,434A48.81,48.81,0,0,0,319,460.55l4.88-.23A4.7,4.7,0,0,0,327.91,457.69Z"/></g><path class="b" d="M322.9,505.3a54.43,54.43,0,0,1-54.27-51.8l-2.15-45.63A54.42,54.42,0,0,1,318.22,351h0a10.24,10.24,0,0,1,10.68,9.72l6.3,133.83a10.23,10.23,0,0,1-9.72,10.68C324.62,505.28,323.76,505.3,322.9,505.3Zm-5.06-143.13a43.28,43.28,0,0,0-40.24,45.17L279.74,453a43.29,43.29,0,0,0,44.31,41.18Z"/><circle class="a" cx="542.74" cy="417.72" r="228.3" transform="translate(112.16 950.31) rotate(-88.63)"/><path class="b" d="M542.82,647c-1.86,0-3.7,0-5.57-.07-126.4-3-226.77-108.32-223.75-234.72a229.3,229.3,0,1,1,458.47,11h0C769,547.74,666.72,647,542.82,647ZM542.6,190.42A227.3,227.3,0,0,0,315.51,412.28C312.51,537.58,412,642,537.3,645S767,548.46,770,423.16l1,0-1,0a227.3,227.3,0,0,0-221.8-232.68C546.32,190.44,544.45,190.42,542.6,190.42Z"/><g class="c"><path class="b" d="M769.55,391.54A226.9,226.9,0,0,1,771,423.19c-3,126-107.66,225.78-233.71,222.78S311.49,538.31,314.5,412.26c0.08-3.62.26-7.25,0.51-10.82C327.74,512.91,421,600.73,536.36,603.5,658.78,606.42,761,512.43,769.55,391.54Z"/></g><path class="b" d="M542.82,651.59c-1.9,0-3.77,0-5.68-.07C408.23,648.43,305.86,541,308.95,412.13s110.4-231.27,239.39-228.2a233.87,233.87,0,0,1,228.2,239.39h0C773.5,550.33,669.19,651.59,542.82,651.59ZM542.6,195A222.74,222.74,0,0,0,320.07,412.39c-2.94,122.78,94.56,225.07,217.35,228s225.06-94.56,228-217.35S670.86,198,548.07,195C546.25,195,544.42,195,542.6,195ZM771,423.18h0Z"/><path class="b" d="M770.11,429a204.78,204.78,0,0,1-40.37,120.12c-18.82,25.56-95.65,69.91-190,69.93-87.52,0-166.73-47.35-185.1-73.24A204.78,204.78,0,0,1,316.36,425c1-118.22,103-166.33,228.35-165.23S771.15,310.81,770.11,429Z"/><path class="b" d="M539.66,624.64c-90.54,0-170.35-48.45-189.6-75.58A210.13,210.13,0,0,1,310.8,425c0.51-57.86,24.1-102.26,70.12-132,40.18-25.95,96.83-39.38,163.84-38.76s123.42,15,163.13,41.64c45.49,30.53,68.29,75.34,67.78,133.2h0a210.13,210.13,0,0,1-41.45,123.37c-18.53,25.16-94.61,72.18-194.52,72.19h0Zm0.84-359.29c-63,0-116,12.76-153.55,37-42.68,27.56-64.56,68.85-65,122.74a199.07,199.07,0,0,0,37.21,117.54c17.55,24.74,95,70.89,180.53,70.89h0c94.77,0,168.74-44.82,185.56-67.67A199.07,199.07,0,0,0,764.55,429c1.29-145.91-153.34-163-219.89-163.62ZM770.11,429h0Z"/><g class="d"><ellipse class="a" cx="696.52" cy="412.32" rx="40.4" ry="29.28" transform="translate(161.24 1019.46) rotate(-79.22)"/></g><g class="d"><ellipse class="a" cx="659.95" cy="492.03" rx="18.54" ry="15.91" transform="translate(-17.85 959.17) rotate(-71.28)"/></g><g class="c"><path class="e" d="M727,318.35c27.5,26.71,43.56,63.19,43.15,110.67a204.89,204.89,0,0,1-40.36,120.12c-18.83,25.56-95.66,69.91-190.05,69.94-33.33,0-65.44-6.85-93.46-16.8,116-2.5,209.62-56.94,233-88.65,31.86-43.28,50.73-95.76,51.22-152.45A231.12,231.12,0,0,0,727,318.35Z"/></g><path class="b" d="M751.49,330.74a5.51,5.51,0,0,1-3.51-1.26l-0.59-.48-0.47-.65c-38-54.33-112.14-86-203.33-86.76C452,240.74,377.31,272.1,338.94,327.5l-0.28.37a5.56,5.56,0,0,1-8.78-6.83c40.52-58.4,118.51-91.43,213.81-90.57,94.77,0.84,172.13,34.15,212.27,91.39A5.57,5.57,0,0,1,751.49,330.74Z"/><g class="d"><path class="a" d="M366.69,495.8s-35.59-116.95,27.68-162.87S548.06,288,545.89,293.78c0,0-100.32,23.35-140.19,102.15C375,456.69,366.69,495.8,366.69,495.8Z"/></g><path class="b" d="M95.59,924.08c18.64-3,37.27-3.66,55.91-4,9.32-.2,18.64-0.24,28-0.19s18.64,0.12,28,.22q28,0.26,55.91.19h643l14-.14,14-.24c18.64-.07,37.27.1,55.91,4.18a1.94,1.94,0,0,1,0,3.8c-18.64,4.08-37.27,4.25-55.91,4.18l-14-.24-14-.14h-643q-28,0-55.91.19c-9.32.1-18.64,0.23-28,.22s-18.64,0-28-.19c-18.64-.36-37.27-1.07-55.91-4A1.92,1.92,0,0,1,95.59,924.08Z"/><rect class="f" x="161.53" y="880.86" width="762.69" height="42.88" rx="21.1" ry="21.1"/><path class="b" d="M903.11,924.54H182.62a21.92,21.92,0,0,1-21.9-21.9V902a21.92,21.92,0,0,1,21.9-21.9H903.11A21.92,21.92,0,0,1,925,902v0.69A21.92,21.92,0,0,1,903.11,924.54ZM182.62,881.66A20.32,20.32,0,0,0,162.33,902v0.69a20.32,20.32,0,0,0,20.29,20.29H903.11a20.32,20.32,0,0,0,20.29-20.29V902a20.32,20.32,0,0,0-20.29-20.29H182.62Z"/><path class="b" d="M903.11,929.3H182.62A26.69,26.69,0,0,1,156,902.64V902a26.69,26.69,0,0,1,26.66-26.66H903.11A26.69,26.69,0,0,1,929.77,902v0.69A26.69,26.69,0,0,1,903.11,929.3ZM182.62,886.42A15.55,15.55,0,0,0,167.09,902v0.69a15.55,15.55,0,0,0,15.53,15.53H903.11a15.55,15.55,0,0,0,15.53-15.53V902a15.55,15.55,0,0,0-15.53-15.53H182.62Z"/><g class="g"><path class="a" d="M903.45,887.21H182.28a14.87,14.87,0,0,0-14.61,15.09A15.13,15.13,0,0,0,176.25,916a15.34,15.34,0,0,1-2.43-8.31,14.87,14.87,0,0,1,14.61-15.09h61.78c3.2,3.66,13.56,6.35,25.87,6.35s22.67-2.69,25.87-6.35H909.6a14.11,14.11,0,0,1,6,1.36A14.49,14.49,0,0,0,903.45,887.21Z"/></g><path class="h" d="M305.24,843.91h475a0,0,0,0,1,0,0v1.71a33.52,33.52,0,0,1-33.52,33.52H338.77a33.52,33.52,0,0,1-33.52-33.52v-1.71a0,0,0,0,1,0,0Z"/><g class="c"><path class="b" d="M780.24,843.91v1.71a33.54,33.54,0,0,1-33.53,33.53H338.77a33.53,33.53,0,0,1-33.53-33.53v-1.71h1.49a33.54,33.54,0,0,0,32,23.64H746.71a33.55,33.55,0,0,0,32-23.64h1.49Z"/></g><path class="b" d="M746.71,884.71H338.77a39.13,39.13,0,0,1-39.08-39.08v-7.27H785.8v7.27A39.13,39.13,0,0,1,746.71,884.71ZM311.07,849.48a28,28,0,0,0,27.69,24.11H746.71a28,28,0,0,0,27.69-24.11H311.07Z"/><g class="i"><path class="a" d="M326.65,855H772.29a28.14,28.14,0,0,0,1.32-4.76H311.87a27.47,27.47,0,0,0,19.29,21.55,27.82,27.82,0,0,1-8.28-10.87A4.23,4.23,0,0,1,326.65,855Z"/></g><path class="j" d="M706.93,878.78H378.81c-17.51,0-32.22-12.39-34.16-28.76L316.87,615c-2.26-19.15,13.67-35.91,34.16-35.91H734.71c20.49,0,36.42,16.75,34.16,35.91L741.09,850C739.15,866.39,724.44,878.78,706.93,878.78Z"/><g class="i"><path class="a" d="M565.8,754.5l0.2-.08a2.22,2.22,0,0,1,2.76,3.22,30.3,30.3,0,1,1-19.46-45.5,2.08,2.08,0,0,1,.41,3.94l-0.06,0A20.83,20.83,0,0,0,565.8,754.5Z"/></g><path class="b" d="M712.3,640.14c-0.11-3.07-.17-6.18-1.23-9.16l-0.92-.89c-0.92-.18-1.83-0.47-2.78-0.56a58.26,58.26,0,0,0-19.74,1.2c-8.48,2-16,5.88-21.93,12.36-2.16,2.34-4.06,4.9-6,7.41a1.52,1.52,0,0,1-1.88.73,17.75,17.75,0,0,0-6.66-.48c-6,.63-11,3.35-15.51,7.22-4.86,4.2-8.51,9.37-11.82,14.83-1.41,2.31-.4,4.5,2.29,5l5.08,0.84,12.14,2a1.27,1.27,0,0,1,0,.24,1.22,1.22,0,0,1-.08.25c-1.3,2.31-.62,4.16,1.35,5.71a8,8,0,0,1,.6.58l3.27,3.15c-1.13,1.19-2.27,2.22-3.23,3.4a4.61,4.61,0,0,0-1,2.19A2.7,2.7,0,0,0,646,699a2.88,2.88,0,0,0,3.31-.61c1.19-1.15,2.3-2.36,3.5-3.6,1.53,1.49,3,2.9,4.43,4.29,1.66,1.58,2.67,1.74,4.73.82,0.37-.18.75-0.32,1.2-0.51,0.1,0.46.19,0.82,0.26,1.17,1.11,5.53,2.21,11.08,3.35,16.59,0.54,2.61,2.81,3.55,5,2.06,2-1.34,4-2.74,5.92-4.2A42.8,42.8,0,0,0,689,702.87c3.6-6.08,5.13-12.49,2.91-19.47a1.11,1.11,0,0,1,.29-1c2-1.72,4-3.36,5.94-5.1a39.47,39.47,0,0,0,10.06-14.1A52.73,52.73,0,0,0,712.3,640.14Zm-66.6,34.71-14.52-2.42c4.12-6,8.63-11.3,15.34-14.28a15,15,0,0,1,8.59-1.22C652,662.87,648.89,668.81,645.71,674.85Zm41,17.28a22.53,22.53,0,0,1-4.58,10.09A48.22,48.22,0,0,1,672,711.77q-1.54-7.63-3-14.94l17.58-10.07A12.39,12.39,0,0,1,686.7,692.13Zm18.12-37.83a37.69,37.69,0,0,1-6.57,14,49.74,49.74,0,0,1-8.7,8.44c-8.68,6.79-18.3,12-28.23,16.71a0.89,0.89,0,0,1-1.21-.17c-0.88-.92-1.84-1.79-2.77-2.7a1.47,1.47,0,0,1-.19-0.31c0.23-.25.49-0.51,0.74-0.77,5.25-5.45,10.53-10.89,15.78-16.36A3,3,0,1,0,669.3,669q-4.74,4.89-9.46,9.8l-7.12,7.39c-1.13-1.09-2.22-2.09-3.22-3.15a1.19,1.19,0,0,1,0-1c2.45-5.2,4.87-10.42,7.47-15.55A89.41,89.41,0,0,1,666.11,652c3.26-4.27,6.91-8.15,11.62-10.84a39.09,39.09,0,0,1,9.57-4,1.34,1.34,0,0,1,1.06.41c4.15,4,8.27,8,12.39,11.95,1.24,1.19,2.46,2.4,3.73,3.57A1.08,1.08,0,0,1,704.82,654.3Zm1.11-6.6L693.78,636c0-.1,0-0.22,0-0.33l12-.35A54.37,54.37,0,0,1,705.93,647.7Z"/><path class="a" d="M704.48,653.09c-1.27-1.17-2.49-2.38-3.73-3.57-4.12-4-8.24-8-12.39-11.95a1.34,1.34,0,0,0-1.06-.41,39.09,39.09,0,0,0-9.57,4c-4.71,2.7-8.36,6.58-11.62,10.84A89.41,89.41,0,0,0,657,666.41c-2.59,5.14-5,10.36-7.47,15.55a1.19,1.19,0,0,0,0,1c1,1.06,2.09,2.06,3.22,3.15l7.12-7.39q4.73-4.91,9.46-9.8a3,3,0,1,1,4.37,4.22c-5.25,5.46-10.53,10.9-15.78,16.36-0.25.26-.51,0.52-0.74,0.77a1.47,1.47,0,0,0,.19.31c0.92,0.9,1.88,1.77,2.77,2.7a0.89,0.89,0,0,0,1.21.17c9.93-4.69,19.55-9.92,28.23-16.71a49.74,49.74,0,0,0,8.7-8.44,37.69,37.69,0,0,0,6.57-14A1.08,1.08,0,0,0,704.48,653.09Zm-9.38,8.44a10.35,10.35,0,1,1-.31-14.57A10.39,10.39,0,0,1,695.1,661.53Z"/><path class="k" d="M705.93,647.7L693.78,636c0-.11,0-0.22,0-0.33l12-.35A54.39,54.39,0,0,1,705.93,647.7Z"/><path class="k" d="M655.13,656.93l-9.41,17.92-14.52-2.42c4.13-6,8.63-11.31,15.34-14.28A15,15,0,0,1,655.13,656.93Z"/><path class="k" d="M682.11,702.22A47.92,47.92,0,0,1,672,711.76q-1.54-7.63-3-14.94l17.59-10.08a12.54,12.54,0,0,1,.19,5.38A22.43,22.43,0,0,1,682.11,702.22Z"/><path class="b" d="M694.78,647a10.32,10.32,0,1,0,.31,14.57A10.33,10.33,0,0,0,694.78,647Zm-3.31,11.26a5.44,5.44,0,1,1,0-7.76A5.48,5.48,0,0,1,691.47,658.22Z"/><path class="l" d="M691.47,658.22a5.44,5.44,0,1,1,0-7.76A5.48,5.48,0,0,1,691.47,658.22Z"/><g class="c"><path class="b" d="M725.23,850.68l27.78-235a23,23,0,0,0-5.59-17.85,27.65,27.65,0,0,0-20.17-9.41l0-.05c-11.35,39-74.69,256.62-374.77,264.89,2.66,11.24,13.5,19.42,26.32,19.42H698.44C712.23,872.7,723.75,863.23,725.23,850.68Z"/></g><g class="i"><path class="a" d="M360.39,854.63l-27.78-235a24.37,24.37,0,0,1,5.89-18.88,29,29,0,0,1,22.16-9.91H744.35a30.45,30.45,0,0,1,8.64,1.27,26.32,26.32,0,0,0-1.87-2.48,29,29,0,0,0-22.16-9.9H345.29a29,29,0,0,0-22.16,9.91,24.37,24.37,0,0,0-5.89,18.88l27.78,235c1.24,10.45,9,18.84,19.39,21.91A24.6,24.6,0,0,1,360.39,854.63Z"/></g><path class="b" d="M706.93,884.34H378.81c-20.35,0-37.41-14.47-39.68-33.67l-27.78-235A36.25,36.25,0,0,1,320.5,587,40.76,40.76,0,0,1,351,573.57H734.71A40.77,40.77,0,0,1,765.24,587a36.25,36.25,0,0,1,9.15,28.65l-27.78,235C744.34,869.87,727.28,884.34,706.93,884.34ZM351,584.69a29.63,29.63,0,0,0-22.22,9.73,25.27,25.27,0,0,0-6.42,20l27.78,235c1.61,13.6,13.92,23.85,28.63,23.85H706.93c14.72,0,27-10.25,28.63-23.85l27.78-235a25.27,25.27,0,0,0-6.42-20,29.64,29.64,0,0,0-22.22-9.73H351Z"/><g class="c"><path class="b" d="M193.79,923.74H903.45c11.46,0,20.76-9.6,20.76-21.44h0c0-11.84-9.29-21.44-20.76-21.44H617.71c-11.29,6.37-95.95,45.82-445.42,35.59Z"/></g><g class="m"><rect class="a" x="379.5" y="632.19" width="49.21" height="98.46" rx="13.9" ry="13.9"/></g><path class="b" d="M569.62,750.67l0.2-.08a2.22,2.22,0,0,1,2.76,3.22,30.3,30.3,0,1,1-19.46-45.5,2.08,2.08,0,0,1,.41,3.94l-0.06,0A20.83,20.83,0,0,0,569.62,750.67Z"/><g class="n"><path class="b" d="M1040,940.76c0,19.38-223.86,35.1-500,35.1S40,960.14,40,940.76c0-5.44,17.7-10.61,49.31-15.21H990.69C1022.3,930.15,1040,935.32,1040,940.76Z"/></g><path class="o" d="M249.19,559.28l-13.45,2.08a6.25,6.25,0,0,0-5.23,5.23L228.43,580l-2.08-13.45a6.25,6.25,0,0,0-5.23-5.23l-13.45-2.08,13.45-2.08a6.25,6.25,0,0,0,5.23-5.23l2.08-13.45L230.51,552a6.25,6.25,0,0,0,5.23,5.23Z"/><path class="o" d="M195.8,648l-12.62,1.95a5.87,5.87,0,0,0-4.9,4.9l-1.95,12.62-1.95-12.62a5.87,5.87,0,0,0-4.9-4.9L156.85,648,169.47,646a5.87,5.87,0,0,0,4.9-4.9l1.95-12.62,1.95,12.62a5.87,5.87,0,0,0,4.9,4.9Z"/><path class="o" d="M153.14,494.06l-9.41,1.45a4.38,4.38,0,0,0-3.66,3.66l-1.45,9.41-1.45-9.41a4.38,4.38,0,0,0-3.66-3.66l-9.41-1.45,9.41-1.45a4.38,4.38,0,0,0,3.66-3.66l1.45-9.41,1.45,9.41a4.38,4.38,0,0,0,3.66,3.66Z"/><path class="o" d="M948.06,524.36l13.82,2.13a6.42,6.42,0,0,1,5.37,5.37l2.13,13.82,2.13-13.82a6.42,6.42,0,0,1,5.37-5.37l13.82-2.13-13.82-2.13a6.42,6.42,0,0,1-5.37-5.37L969.39,503l-2.13,13.82a6.42,6.42,0,0,1-5.37,5.37Z"/><path class="o" d="M864.93,613.27l13,2a6,6,0,0,1,5,5l2,13,2-13a6,6,0,0,1,5-5l13-2-13-2a6,6,0,0,1-5-5l-2-13-2,13a6,6,0,0,1-5,5Z"/><path class="o" d="M894.58,449.08l9.67,1.49a4.5,4.5,0,0,1,3.76,3.76L909.5,464l1.49-9.67a4.5,4.5,0,0,1,3.76-3.76l9.67-1.49-9.67-1.49a4.49,4.49,0,0,1-3.76-3.76l-1.49-9.67L908,443.83a4.5,4.5,0,0,1-3.76,3.76Z"/><path class="o" d="M300.51,185.41L290,187a4.9,4.9,0,0,0-4.09,4.09l-1.63,10.54-1.63-10.54a4.9,4.9,0,0,0-4.09-4.09L268,185.41l10.54-1.63a4.9,4.9,0,0,0,4.09-4.09l1.63-10.54,1.63,10.54a4.9,4.9,0,0,0,4.09,4.09Z"/><path class="o" d="M225.44,270.2l-10.94,1.69a5.08,5.08,0,0,0-4.25,4.25l-1.69,10.94-1.69-10.94a5.08,5.08,0,0,0-4.25-4.25l-10.94-1.69,10.94-1.69a5.08,5.08,0,0,0,4.25-4.25l1.69-10.94,1.69,10.94a5.08,5.08,0,0,0,4.25,4.25Z"/><path class="o" d="M719.42,120.4L730,122a4.9,4.9,0,0,1,4.09,4.09l1.63,10.54,1.63-10.54a4.9,4.9,0,0,1,4.09-4.09l10.54-1.63-10.54-1.63a4.9,4.9,0,0,1-4.09-4.09l-1.63-10.54L734,114.68a4.9,4.9,0,0,1-4.09,4.09Z"/></svg>