<svg xmlns="http://www.w3.org/2000/svg" viewBox="0 0 1080 1080"><defs><style>.a{opacity:0.3;}.b{fill:#371a45;}.c{fill:#f92323;}.d{opacity:0.7;}.e{fill:#fff;}.f{opacity:0.35;}.g{fill:#ff2261;}.h{opacity:0.6;}.i{fill:#33aef1;}.j{fill:#421861;}.k{fill:#ffce00;}.l{fill:#111a28;}</style></defs><title>1997 [Converted]</title><g class="a"><ellipse class="b" cx="543.55" cy="1000.72" rx="307.8" ry="47.55"/></g><path class="c" d="M732.68,484.47c3-26.56,33.23-94.43,62.11-126.56,0,0-93.95,44.89-176.52,44.89"/><g class="d"><path class="e" d="M641.55,419.42c65-9.92,119.14-39.76,122.18-37.2s-29.33,60.57-35.3,96.22l4.26,6c3-26.57,33.2-94.41,62.09-126.54-1.45.69-94.57,44.87-176.5,44.87Z"/></g><g class="f"><path class="b" d="M661.14,433.41l50.6,36.11c11.42-22.36,32.13-64.56,30.39-70.29S719.21,421.2,661.14,433.41Z"/></g><path class="b" d="M732.69,490.18a5.7,5.7,0,0,0,5.66-5.06c2.8-24.68,31.71-91.16,60.68-123.39a5.7,5.7,0,0,0-6.7-9c-0.93.44-93.78,44.33-174.07,44.33a5.7,5.7,0,0,0,0,11.41c60.39,0,125.7-23.13,158.23-36.41-25.28,36.45-46.91,89.14-49.48,111.73a5.7,5.7,0,0,0,5,6.31A5.63,5.63,0,0,0,732.69,490.18Z"/><path class="c" d="M370,484.47c-3-26.56-33.23-94.43-62.11-126.56,0,0,93.95,44.89,176.52,44.89"/><g class="d"><path class="e" d="M461.11,419.42c-65-9.92-119.14-39.76-122.18-37.2s29.33,60.57,35.3,96.22l-4.26,6c-3-26.57-33.2-94.41-62.09-126.54,1.45,0.69,94.57,44.87,176.5,44.87Z"/></g><g class="f"><path class="b" d="M441.52,433.41l-50.6,36.11C379.5,447.16,358.8,405,360.54,399.23S383.44,421.2,441.52,433.41Z"/></g><path class="b" d="M370,490.18a5.63,5.63,0,0,0,.65,0,5.7,5.7,0,0,0,5-6.31c-2.57-22.59-24.2-75.27-49.48-111.73,32.53,13.28,97.84,36.41,158.23,36.41a5.7,5.7,0,0,0,0-11.41c-80.29,0-173.14-43.89-174.07-44.33a5.7,5.7,0,0,0-6.7,9c29,32.22,57.88,98.71,60.68,123.39A5.7,5.7,0,0,0,370,490.18Z"/><path class="g" d="M419.88,456.13c68.78-.13,137.06-16.62,137.06-16.62h2.76s68.35,15.79,137.13,15.42c0,0,35.17,223.36,136.56,398.81,0,0-94.51,23.54-195.41-11.27,0,0-35.63,23.94-78.67,24.1S480.53,843,480.53,843C379.79,878.56,285.17,855.7,285.17,855.7,385.75,679.52,419.88,456.13,419.88,456.13Z"/><path class="c" d="M285.18,855.69a260.5,260.5,0,0,0,27.34,4.5c35.28,4.21,100.26,6.72,168-17.17,0,0,35.73,23.69,78.78,23.54S638,842.46,638,842.46c67.75,23.37,132.62,20.44,167.92,16a259.61,259.61,0,0,0,27.49-4.72C732,678.29,696.83,454.92,696.83,454.92c-68.78.37-137.14-15.42-137.14-15.42l-2.76,0S488.66,456,419.87,456.13C419.87,456.13,385.75,679.53,285.18,855.69Z"/><g class="d"><path class="e" d="M285.18,855.69s3.2,0.78,9.07,1.82C384.82,712,421.42,538.63,421.42,538.63c68-.11,135.55-14,135.55-14l2.73,0s67.6,13.34,135.61,13c0,0,36.14,173.35,127.39,318.3,6.91-1.23,10.7-2.17,10.7-2.17C732,678.29,696.83,454.92,696.83,454.92c-68.78.37-137.14-15.42-137.14-15.42l-2.76,0S488.66,456,419.87,456.13C419.87,456.13,385.75,679.53,285.18,855.69Z"/></g><g class="f"><path class="b" d="M312.52,860.19c35.28,4.21,100.26,6.72,168-17.17,0,0,35.73,23.69,78.78,23.54S638,842.46,638,842.46c67.75,23.37,132.62,20.44,167.92,16C715.12,721.87,683.65,548.92,683.65,548.92c-62.15.31-123.89-12-123.89-12h-2.51s-61.69,12.89-123.83,13C433.41,550,402.7,723,312.52,860.19Z"/></g><path class="b" d="M479.82,849.31c-100.16,34.4-192.09,12.87-196,11.93l-7.37-1.78,3.76-6.59c98.87-173.19,133.68-395.37,134-397.6l0.74-4.83h4.89c67.28-.12,135.05-16.3,135.73-16.46l0.65-.16h4.09l0.64,0.15c0.68,0.16,68.57,15.57,135.82,15.27l4.9,0,0.76,4.84c0.35,2.22,36.19,224.37,135.87,396.85l3.79,6.56-7.35,1.83c-3.89,1-95.72,23.15-196-10.53-9,5.48-41.11,23.38-79.4,23.52h-0.44C520.79,872.26,488.77,854.71,479.82,849.31Zm160-12.24c82,28.3,160.66,17.2,184.71,12.68-89.73-159-126.77-356-132.54-389.13-63.43-.35-125.87-13.84-132.94-15.42h-1.47c-7.11,1.66-69.47,15.78-132.88,16.59C419.12,494.9,383,692,294,851.66c24.07,4.36,102.66,14.9,184.63-14l2.68-.94,2.37,1.56c0.34,0.23,34.68,22.59,75.22,22.59h0.4c40.72-.15,75.17-22.9,75.51-23.13l2.36-1.58Z"/><g class="h"><path class="e" d="M115,380.89c6.22,14.19,16.6,23.91,27.48,30.55-8.11-12.8-13.53-27.91-9.85-43.29,6.56-27.35,51.17-38.23,82.86-44.5-4.62-2.37-19.27-9.88-20.84-10.56C176.45,305.17,97.19,340.29,115,380.89Z"/></g><path class="e" d="M117.2,382.6c0.35,0.77.69,1.55,1.07,2.29s0.57,1.19.88,1.75,0.49,1,.77,1.43c0.43,0.77.87,1.52,1.31,2.26s0.75,1.21,1.16,1.78c0.68,1,1.38,2,2.12,3,0.39,0.54.8,1.07,1.21,1.59,0.56,0.72,1.15,1.4,1.74,2.07s1.14,1.3,1.74,1.93,1.19,1.24,1.8,1.85c1.49,1.46,3,2.85,4.59,4.15,0.46,0.38.91,0.76,1.39,1.12,0.93,0.74,1.87,1.43,2.83,2.12,0.47,0.34,1,.67,1.44,1,0.85,0.57,1.72,1.14,2.58,1.69l0.86,0.53c1.76,1.07,3.55,2.07,5.31,3,0.42,0.23.86,0.45,1.28,0.65,0.21,0.11.44,0.22,0.65,0.32,0,0,0,0,0,0s0.25,0.12.39,0.17a97.15,97.15,0,0,0,10.6,4.39c0.47,0.17.91,0.33,1.37,0.47,2.72,0.92,5.31,1.67,7.69,2.29,0.78,0.2,1.56.4,2.32,0.57s1.58,0.38,2.31.53l1.8,0.37c3.1,0.61,5.5.94,6.95,1.12l0.54,0.05c0.63,0.07,1,.09,1,0.09l113.06,71.89,138.88,88.3,19.36-132.94S411.19,429,357,399.77c-21.37-11.51-43.86-23.61-65.05-34.93-10.34-5.55-20.38-10.91-29.82-16-1-.55-2.08-1.12-3.11-1.67-11.9-6.34-22.76-12.1-32-17l-3.24-1.72c-6.24-3.27-11.63-6.08-16-8.31-0.53-.26-1-0.55-1.55-0.79l0,0q-1.25-.62-2.37-1.21l-3.44-1.71-1.11-.55c-1-.51-1.86-0.88-2.45-1.15C178.67,306.89,99.41,342,117.2,382.6Z"/><path class="e" d="M117.2,382.6c0.35,0.77.69,1.55,1.07,2.29s0.57,1.19.88,1.75,0.49,1,.77,1.43c0.43,0.77.87,1.52,1.31,2.26s0.75,1.21,1.16,1.78c0.68,1,1.38,2,2.12,3,0.39,0.54.8,1.07,1.21,1.59,0.56,0.72,1.15,1.4,1.74,2.07s1.14,1.3,1.74,1.93,1.19,1.24,1.8,1.85c1.49,1.46,3,2.85,4.59,4.15,0.46,0.38.91,0.76,1.39,1.12,0.93,0.74,1.87,1.43,2.83,2.12,0.47,0.34,1,.67,1.44,1,0.85,0.59,1.72,1.14,2.58,1.69l0.86,0.53c1.76,1.07,3.55,2.07,5.31,3,0.42,0.23.86,0.45,1.28,0.65,0.21,0.11.44,0.22,0.65,0.32a4.18,4.18,0,0,0,.39.19,97.15,97.15,0,0,0,10.6,4.39c0.47,0.17.91,0.33,1.37,0.47,2.72,0.92,5.31,1.67,7.69,2.29,0.81,0.22,1.58.4,2.32,0.57s1.58,0.38,2.31.53l1.8,0.37c3.1,0.61,5.5.94,6.95,1.12l0.54,0.05c0.63,0.07,1,.09,1,0.09l113.06,71.89a105.45,105.45,0,0,0,15.55-41.85c7.18-50.15-23.53-92.38-23.53-92.38-10.34-5.55-20.38-10.91-29.82-16-1-.55-2.08-1.12-3.11-1.67-11.9-6.34-22.76-12.1-32-17l-3.24-1.72c-6.24-3.27-11.63-6.08-16-8.31-0.53-.26-1-0.55-1.55-0.79l0,0q-1.25-.62-2.37-1.21l-3.44-1.71-1.11-.55c-1-.51-1.86-0.88-2.45-1.15C178.67,306.89,99.41,342,117.2,382.6Z"/><path class="b" d="M435.75,592.18L185,432.72c-9.07-1-55.55-8-73-47.83-6.66-15.19-2.25-31.66,12.42-46.37,20.38-20.43,59.49-35.59,74.73-29C217.31,317.48,450.95,444,460.88,449.41a5.7,5.7,0,0,1,2.93,5.84L444.45,588.19A5.7,5.7,0,0,1,435.75,592.18ZM194.57,320c-8.18-3.56-42.09,6.49-62.1,26.55-11.45,11.48-14.83,22.83-10,33.73,16.17,36.9,64.4,41.14,64.88,41.18a5.7,5.7,0,0,1,2.62.87L434.43,577.83,452,457.54C422,441.35,211.14,327.23,194.57,320Z"/><path class="b" d="M199.41,360.19A83.51,83.51,0,0,0,175.76,366a72.27,72.27,0,0,0-11.14,5.58A42.34,42.34,0,0,0,154.33,380a21.69,21.69,0,0,0-4,6.5,16.2,16.2,0,0,0-1,8.68c0.17,0.72.36,1.44,0.57,2.16a17.31,17.31,0,0,0,.68,1.78,16.6,16.6,0,0,0,.78,1.68,15.09,15.09,0,0,0,.93,1.65,20,20,0,0,0,5.38,5.84,19.21,19.21,0,0,0,7.34,3.15,25.78,25.78,0,0,0,7.38.36,35.35,35.35,0,0,0,6.78-1.28c1.08-.32,2.15-0.66,3.2-1a35,35,0,0,0,3.26-1.38l-7.45-4.54c0,1.17.05,2,.12,2.94s0.17,1.83.28,2.74a52.09,52.09,0,0,0,1,5.41,45.43,45.43,0,0,0,3.82,10.53,34.15,34.15,0,0,0,7,9.3,30.84,30.84,0,0,0,10.05,6.25A35.06,35.06,0,0,0,211.69,443a42,42,0,0,0,10.86-.92c1.72-.44,3.44-0.86,5.1-1.43s3.3-1.17,4.86-1.94a48.36,48.36,0,0,0,8.91-5.27,0.86,0.86,0,0,0-.57-1.56h0c-6.83.47-13.22,1.3-19.39,1.45s-12-.3-17-2.52A24.11,24.11,0,0,1,193,420.06a36.16,36.16,0,0,1-3.19-8,41.79,41.79,0,0,1-.94-4.31c-0.12-.73-0.22-1.46-0.3-2.18s-0.14-1.53-.15-2v-0.21a5.08,5.08,0,0,0-5.25-4.91,5.17,5.17,0,0,0-2.2.58c-0.52.28-1.42,0.68-2.18,1s-1.6.6-2.41,0.84a25.36,25.36,0,0,1-4.84,1c-3.17.3-6-.26-7.85-1.77a9.22,9.22,0,0,1-2.45-2.93,6.63,6.63,0,0,1-.48-1,8,8,0,0,1-.42-1,7.85,7.85,0,0,1-.33-1,5.09,5.09,0,0,0-.16-0.72,6.19,6.19,0,0,1,.52-2.93A13.47,13.47,0,0,1,162.6,387a35.37,35.37,0,0,1,3.52-3.53c1.35-1.12,2.72-2.27,4.22-3.34,3-2.15,6.14-4.21,9.41-6.21,6.52-4,13.36-7.88,20.18-12.17h0A0.85,0.85,0,0,0,199.41,360.19Z"/><path class="b" d="M173.8,346.88c-1.13,4.5-2.07,8.71-3.18,12.69-0.52,2-1.19,3.9-1.66,5.78a33.66,33.66,0,0,0-1.08,5.68l0,0.55a5.07,5.07,0,0,0,9.42,2.83,18.81,18.81,0,0,0,2.34-7,28.05,28.05,0,0,0,0-7.26,37.89,37.89,0,0,0-1.45-7,28.47,28.47,0,0,0-2.94-6.54,0.77,0.77,0,0,0-1.39.22v0Z"/><path class="b" d="M299.93,503.35a4.27,4.27,0,0,0,3.62-2c17.69-28,21.88-61,12.12-95.31a150.9,150.9,0,0,0-20.25-43.73,4.28,4.28,0,0,0-6.92,5c0.48,0.66,47.38,66.77,7.83,129.45A4.28,4.28,0,0,0,299.93,503.35Z"/><g class="f"><path class="b" d="M151.91,417.1s0,0,0,0,0.25,0.12.39,0.17a97.15,97.15,0,0,0,10.6,4.39c0.47,0.17.91,0.33,1.37,0.47,2.72,0.92,5.31,1.67,7.69,2.29,0.81,0.22,1.58.4,2.32,0.57s1.58,0.38,2.31.53l1.8,0.37c3.1,0.61,5.5.94,6.95,1.12l0.54,0.05c0.63,0.07,1,.09,1,0.09l113.06,71.89,138.88,88.3,8.4-57.65-34.68-30.64c-30.37-17.31-60.86-11.78-88.47-21.92-6.11-2.24-11.71-4.4-15.9-6.22a400.44,400.44,0,0,1-54.88-28.85c15.44-8.49-.2-26.56-0.2-26.56C206,423.22,199.6,388.93,193,387s-38,9-38,9C147.78,401,148.34,409,151.91,417.1Z"/></g><path class="e" d="M352.39,968.45c0.09,0.89.21,1.76,0.38,2.62,4.61,26.05,36.6,35.35,94.18,28.18,26.08-3.25,62.13-7.09,71.64-26.89,19-39.53-.4-119.51,1.85-170.76v-0.09a222.78,222.78,0,0,0,47,0l0,1.26c1.93,51.29-17,130.36,1.82,169.59,9.51,19.8,45.55,23.65,71.63,26.89,57.66,7.17,89.65-2.14,94.21-28.27q0.23-1.24.37-2.53c3.32-31.82-43.23-46.6-43.23-46.6s10.15-67.55,16.85-128.49C725.72,642,666.71,459.72,666.71,459.72H421.17s-59,182.26-42.39,333.64c6.69,60.94,16.83,128.49,16.83,128.49S349.07,936.63,352.39,968.45Z"/><path class="i" d="M699.36,871.72c-4,29.13-7.11,50.12-7.11,50.12s46.56,14.78,43.23,46.6q-0.14,1.29-.37,2.53c-4.56,26.13-36.56,35.44-94.21,28.27-26.08-3.25-62.12-7.09-71.63-26.89-12.06-25.13-8.63-66.58-5.11-106.62C629.61,889,676.64,879.64,699.36,871.72Z"/><path class="i" d="M395.61,921.85s-3.49-23.26-7.73-54.79c20.95,8,68.34,19.31,135.61-3.77,3.59,40.79,7.41,83.43-4.89,109.06C509.09,992.16,473,996,447,999.25c-57.58,7.17-89.57-2.13-94.18-28.18-0.17-.86-0.29-1.73-0.38-2.62C349.07,936.63,395.61,921.85,395.61,921.85Z"/><g class="f"><path class="b" d="M625.85,777.93s-43.35,7-76.82,7-87.06-7-87.06-7,32.17,24.65,83.46,23.59C598,800.42,625.85,777.93,625.85,777.93Z"/></g><g class="f"><path class="b" d="M569.28,972.36c9.51,19.8,45.55,23.65,71.63,26.89,57.66,7.17,89.65-2.14,94.21-28.27-47.2,17.89-130.4,7.67-144.63-15-18.42-29.39-21.41-58.76,7.24-95.38s30.86-84.4,30.86-84.4c-13.69,9.62-41.85,20.06-61.14,26.59C569.39,854.05,550.44,933.12,569.28,972.36Z"/></g><g class="f"><path class="b" d="M352.78,971.07c4.61,26.05,36.6,35.35,94.18,28.18,26.08-3.25,62.13-7.09,71.64-26.89,19-39.53-.4-119.51,1.85-170.76-16-4.76-45.5-14.5-61.06-25.42,0,0-7.84,34.37,25.53,81.34,26.92,37.9,28.88,68.06,10.46,97.43C482.32,975.79,404.66,984.35,352.78,971.07Z"/></g><path class="b" d="M664.9,460.31c4.25,19,8.52,38,12.53,57,1,4.75,2.06,9.49,3,14.25l3,14.25c1.84,9.53,3.81,19,5.52,28.57l2.55,14.32,1.28,7.16,1.12,7.18c1.51,9.57,3.2,19.12,4.35,28.74s2.65,19.2,3.55,28.83L703.3,675c0.54,4.81.73,9.65,1.11,14.47l1,14.48c0.21,2.41.23,4.83,0.3,7.24l0.19,7.25L706.26,733c0.11,2.42,0,4.83,0,7.24l-0.17,7.24-0.34,14.47c0,2.42-.26,4.81-0.43,7.21l-0.57,7.2-1.13,14.41c-0.41,4.81-1,9.66-1.57,14.48-4.5,38.64-9.73,77.27-15.4,115.77l-0.7,4.75,4.61,1.53c1.77,0.59,3.86,1.4,5.77,2.22s3.88,1.72,5.77,2.67a83.93,83.93,0,0,1,10.8,6.44c6.74,4.76,12.56,10.72,15.3,17.58a23.68,23.68,0,0,1,1.7,10.67A26.46,26.46,0,0,1,727,977.45c-3.32,6.37-9.83,10.9-17.48,13.6s-16.17,4-24.75,4.53a201.89,201.89,0,0,1-26.12-.32c-8.75-.58-17.51-1.73-26.4-2.85A261.19,261.19,0,0,1,606.32,988c-8.35-2-16.57-4.61-23.14-8.86a25,25,0,0,1-7.8-7.57,10.33,10.33,0,0,1-.63-1.11,9.94,9.94,0,0,1-.61-1.24l-1.22-2.78c-0.69-1.94-1.43-3.84-2-5.86s-1-4.05-1.55-6.09-0.84-4.15-1.11-6.29c-0.67-4.22-1-8.54-1.33-12.87-0.51-8.68-.47-17.49-0.15-26.31,0.69-17.68,2.42-35.45,4-53.35s3-35.94,2.34-54.44l-0.23-6.08-6.13.67c-3.65.4-7.56,0.68-11.35,0.88s-7.65.3-11.46,0.31-7.64-.11-11.46-0.31-7.7-.48-11.35-0.88l-6.13-.67-0.23,6.08c-0.71,18.49.85,36.53,2.34,54.44s3.27,35.67,4,53.35c0.32,8.83.36,17.63-.15,26.31-0.31,4.33-.66,8.65-1.33,12.87-0.27,2.13-.73,4.19-1.11,6.29s-0.92,4.12-1.55,6.09-1.28,3.93-2,5.86l-1.22,2.78a9.88,9.88,0,0,1-.61,1.24,10.2,10.2,0,0,1-.63,1.11,25,25,0,0,1-7.8,7.57c-6.57,4.25-14.79,6.89-23.14,8.86a261.19,261.19,0,0,1-25.93,4.38c-8.89,1.12-17.65,2.27-26.4,2.85a201.89,201.89,0,0,1-26.12.32c-8.58-.53-17.1-1.79-24.75-4.53s-14.16-7.24-17.48-13.6A26.47,26.47,0,0,1,358,966.85a23.68,23.68,0,0,1,1.7-10.67c2.73-6.86,8.55-12.82,15.3-17.58a84,84,0,0,1,10.8-6.44c1.89-1,3.82-1.84,5.77-2.67s4-1.63,5.77-2.22l4.61-1.53-0.7-4.75q-7.84-53.13-14.31-106.52c-1-8.87-2.16-17.82-2.95-26.64-0.37-4.42-.9-8.81-1.14-13.24l-0.79-13.28c-0.72-17.74-.62-35.54.12-53.32,1.39-35.58,5.86-71.05,11.92-106.2,3-17.54,6.21-35.23,9.46-52.61,3.6-17.47,7-35,10.74-52.51v0a1.91,1.91,0,0,0-3.59-1.23,226.35,226.35,0,0,0-10,25.32c-2.85,8.58-5.46,17.21-7.78,25.95-4.41,17.68-8,35.24-10.86,53.1s-5.17,35.73-7.14,53.67c-1,9-1.77,18-2.55,27L371.49,694c-0.31,4.51-.46,9-0.69,13.54-0.76,18.07-.86,36.19-0.12,54.31l0.8,13.58c0.25,4.53.79,9,1.17,13.57,0.82,9.05,1.95,17.91,3,26.86Q382,869.39,390,922.69l3.91-6.28c-2.48.82-4.57,1.65-6.78,2.59s-4.32,1.92-6.43,3a95.17,95.17,0,0,0-12.27,7.33,65.47,65.47,0,0,0-11,9.68,43.64,43.64,0,0,0-8.25,13,35.14,35.14,0,0,0-2.49,15.65,37.81,37.81,0,0,0,4.13,15.17,36,36,0,0,0,10.34,12,50,50,0,0,0,13.34,7c9.25,3.3,18.68,4.61,28,5.2a213,213,0,0,0,27.62-.33c9.14-.61,18.16-1.79,27.06-2.91a271.89,271.89,0,0,0,27.07-4.58c9-2.16,18.22-4.93,26.78-10.41a36.29,36.29,0,0,0,11.24-11.1,19.81,19.81,0,0,0,1-1.8,17.23,17.23,0,0,0,.87-1.77l1.47-3.38c0.83-2.28,1.7-4.56,2.32-6.87s1.2-4.62,1.76-6.93,0.93-4.64,1.23-7c0.74-4.64,1.12-9.26,1.44-13.87,0.54-9.21.49-18.36,0.17-27.44-0.71-18.16-2.46-36.08-4-53.9s-3-35.58-2.31-52.95l-6.36,5.41c4.14,0.45,8.06.73,12.09,0.94s8,0.32,12,.32,8-.11,12-0.32,7.95-.49,12.09-0.94l-6.36-5.41c0.67,17.37-.82,35.16-2.31,52.95s-3.29,35.75-4,53.9c-0.33,9.08-.38,18.23.17,27.44,0.32,4.61.71,9.23,1.44,13.87,0.3,2.32.8,4.63,1.23,7s1,4.63,1.76,6.93,1.49,4.59,2.32,6.87l1.47,3.38a17.4,17.4,0,0,0,.87,1.77,20,20,0,0,0,1,1.8,36.3,36.3,0,0,0,11.24,11.1c8.57,5.48,17.76,8.25,26.78,10.41a271.9,271.9,0,0,0,27.07,4.58c8.89,1.12,17.92,2.3,27.06,2.91a213,213,0,0,0,27.62.33c9.28-.59,18.7-1.9,28-5.2a50,50,0,0,0,13.34-7,36,36,0,0,0,10.34-12,37.81,37.81,0,0,0,4.13-15.17,35.15,35.15,0,0,0-2.49-15.65,43.64,43.64,0,0,0-8.25-13,65.47,65.47,0,0,0-11-9.68A95.2,95.2,0,0,0,707.19,922c-2.11-1.06-4.26-2.05-6.43-3s-4.3-1.76-6.78-2.59l3.91,6.28c5.7-38.66,10.93-77.33,15.45-116.15,0.53-4.87,1.16-9.69,1.58-14.59l1.17-14.75,0.58-7.38c0.18-2.46.44-4.92,0.44-7.38l0.35-14.77,0.18-7.38c0.06-2.46.17-4.92,0.07-7.38l-0.31-14.75-0.15-7.37c-0.05-2.46-.07-4.92-0.26-7.37l-0.91-14.71c-0.34-4.9-.48-9.82-1-14.7l-1.39-14.66L713,652c-0.21-2.45-.47-4.89-0.8-7.32l-1.9-14.59c-2.52-19.46-5.86-38.79-9.68-58-0.9-4.82-2.05-9.58-3.06-14.38s-2-9.58-3.21-14.34c-2.35-9.51-4.61-19-7.34-28.45a531.83,531.83,0,0,0-18.51-55.79,1.91,1.91,0,0,0-3.63,1.13v0Z"/><g class="f"><path class="b" d="M376.07,681.32A23.88,23.88,0,0,0,391.83,690c19.92,2.4,48.12,4.09,69-1.64,14.79,24.53,41.23,49.13,88.17,63.91,47-14.79,73.45-39.47,88.23-64,21,5.88,49.44,4.18,69.5,1.76a23.28,23.28,0,0,0,5.21-1.24c-0.23-15.38-1-30.75-2.24-45.93a23.7,23.7,0,0,0-5.83-.72c-0.37,0-.77,0-1.13,0a464.16,464.16,0,0,1-48.9,0c2.8-17.84,1-30.29,1-30.29-27-27-105.87-29-105.87-29s-78.85,2-105.88,29c0,0-1.76,12.47,1.06,30.32a466.32,466.32,0,0,1-48.38,0c-0.37,0-.77,0-1.13,0a24,24,0,0,0-17,7.12C376.9,659.89,376.35,670.6,376.07,681.32Z"/></g><path class="c" d="M624.29,667.27c21.2,8.58,54,6.79,76.38,4.08A24,24,0,0,0,721.53,644h0a24,24,0,0,0-24.86-20.49c-20.92,1-52.31,1.44-72.18-3"/><g class="d"><path class="e" d="M696.67,634.18c-20.92,1-52.31,1.44-72.18-3l-0.16,37.86h0l0.2-46.75c19.87,4.41,51.26,3.95,72.18,3a24,24,0,0,1,24.86,20.49h0a24,24,0,0,1-.18,8A24,24,0,0,0,696.67,634.18Z"/></g><g class="f"><path class="b" d="M624.28,667.27c21.21,8.6,54,6.78,76.39,4.09a24.06,24.06,0,0,0,18.39-35,24,24,0,0,1-18.39,12.71c-22.33,2.71-55.08,4.5-76.29-4Z"/></g><path class="b" d="M622.15,672.56h0c-15.12-6.12-15.62-30-11.19-44.26,4.37-14,11.79-14,14.76-13.35,14.77,3.27,39.86,4.28,70.68,2.84a29.74,29.74,0,0,1,5,59.22,295.56,295.56,0,0,1-34.92,2.28C650.57,679.29,634.59,677.6,622.15,672.56Zm74.79-43.38c-22.1,1-52.45,1.36-72.62-2.87-2.08,2.49-5.37,12.58-4.1,23.44,0.36,3.07,1.68,10.4,6.21,12.24h0c15.46,6.26,41.59,7.57,73.56,3.7a18.33,18.33,0,0,0-2.17-36.53Z"/><path class="c" d="M462.12,667.27c-21.2,8.58-54,6.79-76.38,4.08A24,24,0,0,1,364.88,644h0a24,24,0,0,1,24.86-20.49c20.92,1,52.31,1.44,72.18-3"/><g class="d"><path class="e" d="M461.92,631.21c-19.88,4.41-51.26,3.95-72.18,3a24,24,0,0,0-24.5,18.66,24,24,0,0,1,24.5-29.35c20.92,1,52.31,1.44,72.18-3l0.2,46.75,0,0Z"/></g><g class="f"><path class="b" d="M385.74,671.36c22.37,2.69,55.18,4.5,76.39-4.09L462,644.83c-21.21,8.54-54,6.75-76.29,4a23.91,23.91,0,0,1-18.33-12.61A24,24,0,0,0,385.74,671.36Z"/></g><path class="b" d="M385.05,677a29.74,29.74,0,0,1,5-59.22c30.82,1.44,55.91.43,70.68-2.84,3-.66,10.4-0.69,14.76,13.35,4.42,14.23,3.93,38.14-11.19,44.26-12.45,5-28.42,6.73-44.29,6.73A296,296,0,0,1,385.05,677Zm4.42-47.83a18.33,18.33,0,0,0-3.05,36.51c32,3.87,58.1,2.56,73.56-3.7h0c4.53-1.83,5.85-9.17,6.21-12.24,1.27-10.86-2-21-4.1-23.44C441.92,630.54,411.57,630.22,389.48,629.18Z"/><path class="b" d="M443.57,883.85c20.24,0,46.47-3.81,80.09-14.77a5.7,5.7,0,0,0-3.54-10.84c-99.31,32.39-128.39-.9-128.67-1.24a5.74,5.74,0,0,0-8-.82,5.67,5.67,0,0,0-.92,7.94C383.44,865.25,398.85,883.85,443.57,883.85Z"/><path class="b" d="M648.8,886.29c21.33,0,41.84-3.83,55-15.45a5.7,5.7,0,0,0-7.54-8.55c-33.06,29.15-128.46-.85-129.42-1.16A5.7,5.7,0,0,0,563.4,872C566.12,872.86,608.88,886.29,648.8,886.29Z"/><path class="i" d="M549,732.61C436,697,449.58,600.72,449.58,600.72,475,575.34,549,573.51,549,573.51s74.06,1.83,99.44,27.22C648.47,600.72,662.07,697,549,732.61Z"/><g class="d"><path class="e" d="M449.26,616.86c0.15-2.24.32-3.46,0.32-3.46C475,588,549,586.18,549,586.18s74,1.84,99.44,27.21c0,0,.17,1.23.32,3.46a90,90,0,0,0-.32-16.14C623.08,575.34,549,573.5,549,573.5s-74.06,1.84-99.45,27.21A90,90,0,0,0,449.26,616.86Z"/></g><g class="f"><path class="b" d="M449.58,600.72a42.34,42.34,0,0,1,3.6-3.19c1.2,26.73,13.21,84.1,90.9,110.74a15.25,15.25,0,0,0,9.88,0c77.69-26.63,89.7-84,90.9-110.74a42.34,42.34,0,0,1,3.6,3.19S662.07,697,549,732.61C436,697,449.58,600.72,449.58,600.72Z"/></g><path class="e" d="M533.05,624.87l-19.91,2.81a3.27,3.27,0,0,0-1.84,5.57l14.34,14.09a3.27,3.27,0,0,1,.93,2.9L523.1,670a3.27,3.27,0,0,0,4.73,3.47l17.83-9.28a3.27,3.27,0,0,1,3,0l17.76,9.43a3.27,3.27,0,0,0,4.76-3.43l-3.32-19.83a3.27,3.27,0,0,1,1-2.89l14.45-14a3.27,3.27,0,0,0-1.79-5.59l-19.88-3a3.27,3.27,0,0,1-2.46-1.8l-8.82-18.07a3.27,3.27,0,0,0-5.87,0l-9,18A3.27,3.27,0,0,1,533.05,624.87Z"/><path class="b" d="M547.31,738.05c-60.59-19.07-85.5-55.51-95.74-82.72-11.11-29.55-7.78-54.36-7.64-55.4L444.2,598l1.35-1.35c26.69-26.69,100.22-28.81,103.33-28.88h0.28c3.12,0.08,76.64,2.2,103.33,28.88l1.35,1.35,0.27,1.89c0.15,1,3.48,25.86-7.64,55.4-10.24,27.21-35.15,63.65-95.74,82.72l-1.71.54ZM549,579.21c-3.54.11-69.72,2.48-94,24.19a115.89,115.89,0,0,0,7.39,48.4c13.51,35.42,42.64,60.58,86.59,74.83,44-14.24,73.08-39.41,86.59-74.83a115.88,115.88,0,0,0,7.39-48.4C618.74,581.69,552.57,579.32,549,579.21Z"/><path class="e" d="M754.94,752.33c59.29-12.09,42.16-67.83,41.76-69.15l0,0c2.43-1.54,4.75-3.1,7-4.64,0,0-80.17-9.77-95.72-46.87a29.61,29.61,0,0,1-1.43-4.1h0C659.2,697.93,701.25,763.28,754.94,752.33Z"/><path class="e" d="M727.08,602.6c-0.14.14-.28,0.28-0.4,0.41C649.6,681.76,695,764.55,754.94,752.33s41.75-69.16,41.75-69.16c152.26-96.93-69.6-216.24-69.6-216.24C685.16,443.79,642,429.16,642,429.16L669.11,512l21.52,65.81C719.71,590.41,727.08,602.6,727.08,602.6Z"/><g class="f"><path class="b" d="M684.21,524.25l6.42,53.54c29.08,12.62,36.45,24.81,36.45,24.81s-0.28.28-.4,0.41c7.8-6.43,18.25-13.78,29.24-17.9,0,0-20.25-11.12-27-19.07-29.13-34.29-21.61-62.74-49-59.25C675.62,507.35,681.37,518.36,684.21,524.25Z"/></g><path class="b" d="M743.39,759.21a63.42,63.42,0,0,0,12.68-1.29c19.6-4,33.59-12.94,41.58-26.57,10.13-17.3,7.47-37.06,5.58-45.62,35.95-23.85,53.6-51.26,52.49-81.53C853,529,734.81,464.61,729.78,461.9c-41.83-23.08-85.49-38-85.93-38.13a5.7,5.7,0,0,0-3.66,10.8c0.43,0.14,43.17,14.74,84.14,37.35,1.23,0.66,117.48,64,120,132.71,1,26.89-16.07,51.7-50.7,73.74l-3.71,2.36,1.34,4.19c0.07,0.21,7,22.85-3.49,40.74-6.29,10.68-17.71,17.78-34,21.09-22.37,4.56-43.21-5.38-54.37-25.95-13.86-25.54-12.81-69,31.73-114.2l3.11-3.16-2.3-3.79c-0.75-1.24-8-12.43-33.39-24.49a5.7,5.7,0,1,0-4.9,10.3c14.36,6.83,22.06,13.22,25.74,16.91-45.31,48.37-45.42,95.48-30,123.88C700.72,747.09,721.08,759.21,743.39,759.21Z"/><path class="b" d="M730.2,606.6c1.94-2,4.12-4.1,6.27-6.09s4.38-3.94,6.65-5.84a99.86,99.86,0,0,1,14.54-10.27,102.33,102.33,0,0,0-17.2,5.94q-4.19,1.84-8.31,3.89c-2.76,1.38-5.42,2.76-8.2,4.36Z"/><path class="b" d="M794.3,678.69c-2.37,1.42-4.82,3-7.23,4.48l-7.3,4.57-7.37,4.55c-2.48,1.52-5,3-7.56,4.49a63.62,63.62,0,0,0,8.86-1.08c2.92-.56,5.81-1.26,8.66-2.06s5.68-1.68,8.45-2.69,5.52-2,8.27-3.3Z"/><g class="a"><path class="j" d="M754.94,752.33c59.29-12.09,42.16-67.83,41.76-69.15l0,0s-10.3,55.18-63.89,40c-34.28-9.7-31.38-58-24.83-91.55a29.61,29.61,0,0,1-1.43-4.1h0C659.2,697.93,701.25,763.28,754.94,752.33Z"/></g><path class="c" d="M549.89,513.26v17.93s79.44,11.41,121.95-67.28a188.35,188.35,0,0,0,15.42-38.79L643.77,432s-17.41,28.93-42.22,52.36C586.34,498.69,568.34,511,549.89,513.26Z"/><g class="f"><path class="b" d="M549.89,513.26v17.93s79.44,11.41,121.95-67.28c-10.7,11.62-41.3,43.37-55.45,42.59-12.94-.7,15.15-20.63,13.82-25.61s-32.75,34.42-39.47,22.87c-1.84-3.17,13.68-8.32,10.81-19.45C586.34,498.69,568.34,511,549.89,513.26Z"/></g><path class="b" d="M549.28,535.42l-3.67-.53V509.48l3.76-.46c45.89-5.65,90.3-78.54,90.74-79.27l1-1.71,52-8.17-1.81,6.42c-18.06,64.17-55.67,90.46-84,101.21a133.22,133.22,0,0,1-46.63,8.57A87.07,87.07,0,0,1,549.28,535.42Zm97.1-99.55c-7.12,11.37-47.27,72.49-92.21,81v10.37a123.85,123.85,0,0,0,50.13-7.79c36.87-14,62.73-43.93,76.93-89.1Z"/><path class="c" d="M456,431.95s45.35,75.34,93.88,81.31v17.93S446.54,546,412.52,425.12Z"/><path class="b" d="M492.45,527.49c-28.37-10.75-66-37-84-101.21l-1.81-6.42,52,8.17,1,1.71c0.44,0.74,44.85,73.62,90.74,79.27l3.76,0.46v25.42l-3.67.53a87,87,0,0,1-11.42.64A133.22,133.22,0,0,1,492.45,527.49Zm53.16-10.58c-44.94-8.56-85.09-69.68-92.21-81l-34.85-5.47c14.15,45,39.89,74.92,76.57,89a124.35,124.35,0,0,0,50.49,7.92V516.92Z"/><path class="b" d="M679.14,507c1.57,14.46,3.47,28.73,5.49,43,1,7.13,2,14.27,3.32,21.34s2.68,14.14,4.6,21.07v0a5.72,5.72,0,0,0,11.2-2.12,197.24,197.24,0,0,0-3.68-21.4c-1.53-7.07-3.44-14.06-5.39-21s-4.07-13.92-6.35-20.82-4.75-13.75-7.62-20.47A0.82,0.82,0,0,0,679.14,507Z"/><path class="b" d="M836.73,651.29A4.28,4.28,0,0,0,841,647c0-16.86-14-34.35-35.8-44.58-24.79-11.63-62.47-14.73-93.86,11.49a4.28,4.28,0,1,0,5.48,6.57c28.3-23.64,62.33-20.83,84.74-10.31,18.79,8.82,30.91,23.27,30.88,36.81a4.28,4.28,0,0,0,4.27,4.29h0Z"/><g class="f"><path class="b" d="M549.89,513.26v17.93s-79.44,11.41-121.95-67.28c10.7,11.62,41.3,43.37,55.45,42.59,12.94-.7-15.15-20.63-13.82-25.61s32.75,34.42,39.47,22.87c1.84-3.17-13.68-8.32-10.81-19.45C513.44,498.69,531.44,511,549.89,513.26Z"/></g><path class="k" d="M559.51,504.59l-6.16-13a3.49,3.49,0,0,0-6.26-.1l-6.58,12.8a3.49,3.49,0,0,1-2.66,1.87L523.58,508a3.49,3.49,0,0,0-2,5.92l10.14,10.21a3.49,3.49,0,0,1,1,3.11L530,541.35a3.49,3.49,0,0,0,5,3.76l12.84-6.49a3.49,3.49,0,0,1,3.25.05l12.62,6.9a3.49,3.49,0,0,0,5.12-3.6l-2.2-14.22a3.49,3.49,0,0,1,1.05-3.07l10.47-9.87a3.49,3.49,0,0,0-1.84-6l-14.2-2.3A3.49,3.49,0,0,1,559.51,504.59Z"/><g class="d"><path class="e" d="M521.56,513.9l4,4a3.43,3.43,0,0,1,2.89-2.5l14.27-1.84a3.45,3.45,0,0,0,2.66-1.87L552,499a3.48,3.48,0,0,1,4-1.78l-2.65-5.59a3.49,3.49,0,0,0-6.26-.11l-6.57,12.8a3.47,3.47,0,0,1-2.66,1.85L523.58,508A3.49,3.49,0,0,0,521.56,513.9Z"/></g><g class="f"><path class="b" d="M554.78,540.7l8.93,4.89a3.48,3.48,0,0,0,5.12-3.6l-2.19-14.21a3.5,3.5,0,0,1,1-3.08l10.48-9.86a3.5,3.5,0,0,0-1.84-6l-7-1.13a3.38,3.38,0,0,1-1,1.88l-10.46,9.88a3.43,3.43,0,0,0-1.06,3.06l2.19,14.23A3.47,3.47,0,0,1,554.78,540.7Z"/></g><path class="b" d="M561.65,549.34l-12.26-6.71-12.47,6.3a7.77,7.77,0,0,1-11.14-8.37l2.59-13.73-9.85-9.92A7.77,7.77,0,0,1,523,503.73L536.9,502l6.39-12.43a7.77,7.77,0,0,1,13.93.23l6,12.63,13.8,2.24a7.77,7.77,0,0,1,4.09,13.32l-10.17,9.59L573,541.34A7.76,7.76,0,0,1,561.65,549.34Zm-0.22-38.58a7.77,7.77,0,0,1-5.78-4.34h0l-5.47-11.56-5.85,11.38a7.77,7.77,0,0,1-5.92,4.15L525.71,512l9,9.08a7.77,7.77,0,0,1,2.12,6.91l-2.37,12.57,11.42-5.77a7.77,7.77,0,0,1,7.23.12l11.23,6.14-2-12.65a7.77,7.77,0,0,1,2.35-6.83l9.31-8.78Z"/><path class="e" d="M328.37,324.22h0a4.44,4.44,0,0,0,4.76-4.09l9.52-127.46a4.44,4.44,0,0,0-4.09-4.76h0a46.55,46.55,0,0,0-49.89,43l-3.25,43.46A46.55,46.55,0,0,0,328.37,324.22Z"/><path class="b" d="M328.3,325.24h0a47.63,47.63,0,0,1-43.9-51l3.25-43.46a47.58,47.58,0,0,1,51-43.9,5.46,5.46,0,0,1,5,5.85L334.15,320.2a5.46,5.46,0,0,1-5.44,5.06ZM305.38,199.83a45.23,45.23,0,0,0-15.69,31.11l-3.25,43.46a45.58,45.58,0,0,0,42,48.79h0a3.41,3.41,0,0,0,3.66-3.15l9.52-127.46a3.41,3.41,0,0,0-3.15-3.66q-1.74-.13-3.46-0.13A45.19,45.19,0,0,0,305.38,199.83Z"/><g class="f"><path class="b" d="M286.94,253.95l-1.53,20.38a46.57,46.57,0,0,0,43,49.89,4.45,4.45,0,0,0,4.76-4.1l2.54-33.88a4.45,4.45,0,0,1-4.22,2.32l-3-.23A46.51,46.51,0,0,1,286.94,253.95Z"/></g><path class="b" d="M327.95,329.9a52.31,52.31,0,0,1-48.21-56L283,230.44a52.25,52.25,0,0,1,56-48.22,10.14,10.14,0,0,1,9.36,10.87l-9.52,127.46a10.14,10.14,0,0,1-10.09,9.39ZM308.43,203.38a40.58,40.58,0,0,0-14.08,27.91l-3.25,43.46a40.9,40.9,0,0,0,36.43,43.66l9.33-124.89A40.5,40.5,0,0,0,308.43,203.38Z"/><path class="e" d="M759.26,219.34h0a4.44,4.44,0,0,0-4.76,4.09L745,350.89a4.44,4.44,0,0,0,4.09,4.76h0a46.55,46.55,0,0,0,49.89-43l3.25-43.46A46.55,46.55,0,0,0,759.26,219.34Z"/><path class="b" d="M749,356.67a5.47,5.47,0,0,1-5-5.85l9.52-127.46a5.46,5.46,0,0,1,5.85-5h0a47.63,47.63,0,0,1,43.9,51L800,312.77a47.58,47.58,0,0,1-47.37,44Q750.82,356.8,749,356.67Zm7.7-135.49a3.39,3.39,0,0,0-1.18,2.33L746,351a3.42,3.42,0,0,0,3.15,3.66,45.53,45.53,0,0,0,48.79-42l3.25-43.46a45.58,45.58,0,0,0-42-48.79h-0.26A3.38,3.38,0,0,0,756.7,221.18Z"/><g class="f"><path class="b" d="M747.61,315.53L745,350.89a4.45,4.45,0,0,0,4.1,4.76A46.53,46.53,0,0,0,799,312.7l1.37-18.31A46.57,46.57,0,0,1,756,318.49l-4.65-.35A4.49,4.49,0,0,1,747.61,315.53Z"/></g><path class="b" d="M748.65,361.33a10.15,10.15,0,0,1-9.36-10.87L748.82,223a10.14,10.14,0,0,1,10.87-9.36,52.31,52.31,0,0,1,48.21,56l-3.25,43.46a52.26,52.26,0,0,1-52,48.36C751.31,361.48,750,361.43,748.65,361.33Zm2.11-11.3a40.85,40.85,0,0,0,42.52-37.77l3.25-43.46a40.9,40.9,0,0,0-36.43-43.66Z"/><circle class="e" cx="543.79" cy="271.78" r="217.8" transform="translate(270.07 814.59) rotate(-89.8)"/><path class="b" d="M543,490.6a218.83,218.83,0,0,1-153.4-374.11A217,217,0,0,1,544.57,53c120.66,0.43,218.47,98.94,218,219.6a218.83,218.83,0,0,1-218.8,218H543Zm-152-372.65A216.78,216.78,0,0,0,543,488.55h0.8a216.77,216.77,0,0,0,216.75-216C761,153,664.09,55.43,544.56,55h-0.8A215.35,215.35,0,0,0,391.05,117.95Z"/><g class="f"><path class="b" d="M328.18,240.86A216.46,216.46,0,0,0,326,271c-0.41,120.28,96.75,218.14,217,218.58s218.14-96.75,218.58-217c0-3.46-.05-6.92-0.21-10.33C746.33,368.19,655.06,449.5,545,449.11,428.18,448.68,333.19,356.37,328.18,240.86Z"/></g><path class="b" d="M543,495.28A223.5,223.5,0,0,1,320.29,271h0A223.5,223.5,0,0,1,543.77,48.27h0.82c123.24,0.44,223.14,101.06,222.7,224.3A223.5,223.5,0,0,1,543.81,495.28H543Zm-148.64-374A210.71,210.71,0,0,0,331.69,271h0a212.1,212.1,0,1,0,424.19,1.51c0.42-117-94.39-212.44-211.34-212.85h-0.78A210.71,210.71,0,0,0,394.35,121.27Z"/><path class="b" d="M326.67,276.6A195.36,195.36,0,0,0,362,392.2c17.28,24.87,89.38,69.18,179.4,71.67,83.46,2.31,160.25-40.78,178.44-65a195.36,195.36,0,0,0,39.64-114.21c2.11-112.77-93.91-161.32-213.43-163.56S328.77,163.83,326.67,276.6Z"/><path class="b" d="M541.25,469.58c-95.42-2.64-166.88-49.58-183.92-74.12a200.87,200.87,0,0,1-36.36-119h0c1-55.33,24-97.58,68.32-125.57,38.64-24.42,92.88-36.7,156.88-35.49s117.75,15.49,155.44,41.33c43.22,29.63,64.61,72.71,63.58,128a200.85,200.85,0,0,1-40.78,117.53c-18.61,24.77-92.65,67.35-176.39,67.35C545.77,469.67,543.51,469.64,541.25,469.58Zm-145.88-309c-40.85,25.81-62.05,64.89-63,116.15h0A189.54,189.54,0,0,0,366.69,389c15.41,22.18,84.64,66.73,174.87,69.22,81.43,2.27,156.37-39.63,173.73-62.71a189.53,189.53,0,0,0,38.49-110.89C756.37,145.75,609.3,128,545.95,126.82q-4.18-.08-8.3-0.08C479.52,126.75,430.46,138.38,395.37,160.56Z"/><g class="d"><ellipse class="e" cx="397.29" cy="262.59" rx="27.93" ry="38.54" transform="translate(-36.87 66.9) rotate(-9.2)"/></g><g class="d"><ellipse class="e" cx="430.07" cy="339.57" rx="15.18" ry="17.69" transform="translate(-80.98 141.85) rotate(-17.14)"/></g><g class="f"><path class="l" d="M370.72,172.18c-26.93,24.75-43.2,59.12-44.05,104.41A195.46,195.46,0,0,0,362,392.2c17.28,24.87,89.4,69.18,179.41,71.68,31.78,0.89,62.59-4.82,89.57-13.57-110.58-5.43-198.41-59.8-219.84-90.65-29.25-42.1-45.87-92.65-44.85-146.72A220.5,220.5,0,0,1,370.72,172.18Z"/></g><path class="b" d="M740.48,191.72l-0.3-.42c-35.06-53.73-105.26-85.48-192.59-87.12-86.82-1.61-158.24,26.53-195.85,77.24l-0.34.53-0.61.48a5.7,5.7,0,0,1-8-8.06c39.89-53.55,114.66-83.3,205-81.59,91.1,1.7,164.67,35.3,201.85,92.17A5.7,5.7,0,0,1,740.48,191.72Zm4.5-3.5,0.37-.29Z"/><g class="d"><path class="e" d="M709.63,350.86s37-110.59-22.12-156S542.12,147.93,544,153.5c0,0,95.06,24.9,131,101.09C702.77,313.34,709.63,350.86,709.63,350.86Z"/></g><path class="b" d="M568.27,806.79a60.38,60.38,0,0,0,8.7-1.4c2.81-.64,5.57-1.43,8.3-2.33a111.1,111.1,0,0,0,15.84-6.68c2.59-1.22,5-2.72,7.54-4.1s4.88-3,7.21-4.64A98.22,98.22,0,0,0,629,776.81a0.77,0.77,0,0,0-.85-1.27h0c-5.17,2.24-10.14,4.57-15.3,6.47-2.51,1.08-5.15,1.87-7.66,2.87s-5.15,1.75-7.74,2.56c-5.16,1.66-10.38,3.05-15.55,4.5L578,793q-1.95.51-3.88,1.06c-2.55.69-5.23,1.42-7.58,2.14l-0.28.09A5.36,5.36,0,0,0,568.27,806.79Z"/><path class="b" d="M521.43,796.24c-2.35-.72-5-1.45-7.58-2.14q-1.93-.56-3.88-1.06L506.09,792c-5.17-1.45-10.39-2.85-15.55-4.5-2.59-.8-5.15-1.69-7.74-2.56s-5.16-1.79-7.66-2.87c-5.16-1.91-10.13-4.24-15.3-6.47h0a0.77,0.77,0,0,0-.85,1.26,98.2,98.2,0,0,0,13.17,10.84c2.33,1.65,4.77,3.14,7.21,4.64s5,2.88,7.54,4.1a111.12,111.12,0,0,0,15.84,6.68c2.72,0.9,5.49,1.69,8.3,2.33a60.36,60.36,0,0,0,8.7,1.4,5.36,5.36,0,0,0,2-10.47Z"/><path class="b" d="M693.17,916.58a79.94,79.94,0,0,0-10.9-1.78c-1.81-.21-3.62-0.34-5.43-0.43s-3.63-.17-5.44-0.18a133.38,133.38,0,0,0-21.75,1.63,118.74,118.74,0,0,0-21.16,5.48,75,75,0,0,0-19,10.58,0.77,0.77,0,0,0,.76,1.32h0a106.41,106.41,0,0,1,19.89-5.76,160,160,0,0,1,20.38-2c6.83-.18,13.66.07,20.47,0.37s13.73,0.87,20.3,1.32h0.21A5.35,5.35,0,0,0,693.17,916.58Z"/><path class="b" d="M396.52,927.11c6.57-.46,13.52-1,20.3-1.32s13.64-.55,20.47-0.37a160,160,0,0,1,20.38,2,106.41,106.41,0,0,1,19.89,5.76h0a0.77,0.77,0,0,0,.76-1.32,75,75,0,0,0-19-10.58,118.74,118.74,0,0,0-21.16-5.48,133.38,133.38,0,0,0-21.75-1.63c-1.82,0-3.63.05-5.44,0.18s-3.63.22-5.43,0.43a79.94,79.94,0,0,0-10.9,1.78,5.35,5.35,0,0,0,1.61,10.55Z"/></svg>