<?xml version="1.0" encoding="utf-8"?>
<!-- Generator: Adobe Illustrator 19.2.1, SVG Export Plug-In . SVG Version: 6.00 Build 0)  -->
<svg version="1.1" id="Layer_1" xmlns="http://www.w3.org/2000/svg" xmlns:xlink="http://www.w3.org/1999/xlink" x="0px" y="0px"
	 viewBox="0 0 1080 1080" style="enable-background:new 0 0 1080 1080;" xml:space="preserve">
<style type="text/css">
	.st0{fill:#FFFFFF;}
	.st1{opacity:0.35;}
	.st2{fill:#371A45;}
	.st3{fill:#4A83FF;}
	.st4{fill:#A34F31;}
	.st5{opacity:0.3;}
	.st6{fill:#6B184E;}
	.st7{fill:#BF943D;}
	.st8{fill:#EC1C24;}
	.st9{fill:#FFCE00;}
	.st10{opacity:0.7;}
	.st11{fill:#220F2D;}
</style>
<title>18749402 [Converted]</title>
<g>
	<path class="st0" d="M409.1,416.4l-25.9,81.9c-39.7,11.2-138.9-6.6-207.4-53.8c-29.5-20.3-53.3-46.1-64.1-77.4
		c-31.7-91.5,50.2-97.1,81.7-77.2c24.5,15.5,42.6,36,64.7,56.4C289.9,375.4,329.9,404,409.1,416.4z"/>
	<g class="st1">
		<path class="st2" d="M392.1,470.4l-8.8,27.9c-39.7,11.2-138.9-6.6-207.4-53.8c-29.5-20.3-53.3-46.1-64.1-77.4
			c-11.8-33.9-7.9-56.1,3.2-69.4c-0.7,11.2,1.4,24.8,7,41.1c0.2,0.5,0.3,1,0.5,1.5c9,23.4,39.1,29.6,57.2,12.3
			c3.5-3.3,5.9-5,5.9-3.5c0.2,31.3-9.7,55.8,0.5,67.1C241.5,476.8,351.5,480.7,392.1,470.4z"/>
	</g>
	<path class="st3" d="M409.1,416.4l-11.9,37.7l-14,44.2c-6.9,1.9-15.5,3-25.4,3.2c-47.6,1-125.3-18-181.9-57
		c46.4-23,70.8-68.5,82.3-98.3c14.8,13.6,31.4,27.1,53,38.9c19.5,10.7,43.1,19.9,73.1,26.6C392,413.4,400.3,415,409.1,416.4z"/>
	<g class="st1">
		<path class="st2" d="M409.1,416.4l-25.9,81.9c-39.7,11.2-138.9-6.6-207.4-53.8c7.1-3.5,13.9-7.7,20.3-12.4
			c35.4,20.3,76.2,33.7,112,40.3c41.5,7.6,82.1-16.8,94.8-57l0,0C405,415.7,407,416,409.1,416.4z"/>
	</g>
	<path class="st2" d="M353.9,507.1c-38.1,0-90.1-11.9-134.6-32.1c-16.3-7.3-31.8-16-46.5-26c-33.5-23.1-55.8-50-66.2-80.1
		c-16.3-47.1-2.9-70.3,11.1-81.5c21.7-17.2,58.2-15,78.6-2.1c18.4,11.6,33,25.8,48.5,40.8c5.5,5.3,11.2,10.8,17.1,16.3
		c9.9,9.3,20.5,17.8,31.6,25.6c31.9,22,68.9,35.7,116.4,43.1c3,0.4,5,3.2,4.6,6.1c-0.4,3-3.2,5-6.1,4.6c-0.1,0-0.1,0-0.1,0
		c-49.2-7.7-87.6-21.9-120.9-44.9c-11.6-8.1-22.5-16.9-32.8-26.6c-6-5.5-11.8-11.1-17.3-16.5c-15-14.6-29.3-28.3-46.7-39.4
		c-16.9-10.7-48.2-12.7-66.1,1.5c-16.2,12.9-18.9,36.9-7.6,69.4c9.6,27.8,30.5,53,62.1,74.7c14.2,9.7,29.2,18.1,44.8,25.1
		c61.8,28,128.9,36.2,158,28c2.9-0.8,5.9,0.8,6.7,3.7s-0.8,5.9-3.7,6.7l0,0C376.2,505.9,365.7,507.1,353.9,507.1z"/>
	<path class="st0" d="M293.3,378.9c-11.2,41.5-40.2,71.8-65.8,91.4c-4.2,3.2-9.9,3.8-14.7,1.5c-7.6-3.6-15-7.6-22.3-11.8
		c-6.7-3.9-9-12.5-5.1-19.2c1-1.8,2.4-3.3,4.1-4.5c10.4-7.1,19.9-15.5,28.4-24.8c14.4-15.8,26.3-33.6,35.5-52.9
		c3.3-7.1,11.6-10.1,18.7-6.9c1.1,0.5,2.2,1.2,3.1,2c4.1,3.4,8.4,6.8,12.8,10.1C292.6,367.3,294.7,373.2,293.3,378.9z"/>
	<g class="st1">
		<path class="st2" d="M284.6,402.4c-14,29.6-36.6,52.2-57.1,67.9c-4.2,3.2-9.9,3.8-14.7,1.5c-7.6-3.7-15-7.6-22.3-11.8
			c-6.7-3.9-9-12.5-5.1-19.2c1-1.8,2.4-3.3,4.1-4.5c3.3-2.3,6.5-4.7,9.8-7.3c1.2,2.7,3.2,4.9,5.7,6.3c7.3,4.2,14.7,8.1,22.3,11.8
			c4.8,2.3,10.5,1.7,14.7-1.5C256.4,434.6,271.8,420.2,284.6,402.4z"/>
	</g>
	<path class="st2" d="M218.9,478.7c-2.9,0-5.8-0.7-8.5-2c-7.8-3.8-15.5-7.8-22.7-12c-9.3-5.4-12.5-17.3-7.1-26.6
		c1.4-2.5,3.4-4.6,5.8-6.2c10-6.9,19.2-15,27.4-24c14-15.4,25.7-32.7,34.6-51.5c4.5-9.8,16.1-14.1,25.9-9.5c1.5,0.7,3,1.6,4.3,2.7
		c4.3,3.5,8.4,6.8,12.6,9.9c6.5,4.8,9.4,13,7.3,20.8l0,0c-11.9,44.2-43.4,75.7-67.8,94.3C227.4,477.2,223.2,478.6,218.9,478.7z
		 M266.2,355.9c-3.4,0-6.4,1.9-7.9,5c-9.4,19.8-21.6,38.1-36.4,54.3c-8.7,9.7-18.6,18.3-29.3,25.6c-3.9,2.7-4.9,8.1-2.2,12
		c0.7,1,1.6,1.9,2.7,2.5c7,4,14.4,7.9,21.9,11.6c2.9,1.4,6.4,1.1,9-0.9c23-17.6,52.7-47.3,63.9-88.5l0,0c0.9-3.5-0.4-7.1-3.3-9.2
		c-4.4-3.2-8.6-6.6-13.1-10.3C270.1,356.6,268.2,355.9,266.2,355.9L266.2,355.9z M293.3,378.9L293.3,378.9z"/>
	<path class="st0" d="M729.7,678.1c-31.3,40.8-112.7,26.7-112.7,26.7l-0.7-275.7l-0.2-55.7c0,0,46.5,1.2,81.8,15.8
		c17,7,31.4,17.1,36.8,31.7C753.5,471.6,755.4,644.6,729.7,678.1z"/>
	<g class="st1">
		<path class="st2" d="M748.7,536c1.1,60.5-4.6,123.3-19.1,142.1c-31.3,40.8-112.8,26.6-112.8,26.6l-0.8-331.3c0,0,0.9,0,2.5,0.1
			l0.7,258.3c0,0,81.5,14.1,112.7-26.7C740.4,594.1,745.9,568,748.7,536z"/>
	</g>
	<path class="st2" d="M648.9,712.6c-11,0-22.1-0.8-33-2.5c-3-0.5-4.9-3.3-4.4-6.3s3.3-4.9,6.3-4.4l0,0c0.8,0.1,78.6,13.1,107.5-24.6
		c23.8-31.1,23.3-200.4,4.2-251.9c-15.1-40.9-112.6-44-113.6-44c-3-0.1-5.4-2.6-5.3-5.6c0.1-3,2.6-5.4,5.6-5.3
		c4.3,0.1,105.9,3.4,123.6,51.1c9.1,24.5,14.9,79.5,14.5,136.9c-0.2,30-2.6,102.4-20.3,125.4C714.1,707.3,676.4,712.6,648.9,712.6z"
		/>
	<path class="st0" d="M742.8,561.4l-55.5,4.2c-5,0.4-9,4-9.9,8.9c-3.2,17.9-8.6,59.7,8.8,73.5c14.5,11.5,37.9,10.1,51.7-1.5
		c15.4-13,16.9-54,16.7-74.3c-0.1-6-5-10.9-11-10.8C743.2,561.4,743,561.4,742.8,561.4z"/>
	<g class="st1">
		<path class="st2" d="M677.3,574.5c-3.3,17.9-8.6,59.7,8.8,73.5c14.5,11.5,37.9,10.1,51.7-1.5c9.5-8,13.7-26.6,15.5-44.4
			c-2.5,8.9-6.4,16.1-11.3,20.9c-28,27.2-48.9-4.9-48.9-4.9s-3.6,7.8-6.5,8.2c-12.1,1.8-9.6-36-7.8-55.5
			C678,571.9,677.5,573.1,677.3,574.5z"/>
	</g>
	<path class="st2" d="M710.6,661.3c-10.1,0-20.1-3-27.8-9.1c-19.1-15.1-15-55.8-10.8-78.7c1.3-7.3,7.4-12.8,14.9-13.4l55.5-4.2l0,0
		c9-0.7,16.9,6.1,17.5,15.1c0,0.3,0,0.7,0,1c0.3,28.3-2.6,65-18.6,78.5C732.9,657.7,721.7,661.3,710.6,661.3z M743.2,566.8
		l-55.5,4.2c-2.5,0.2-4.5,2-5,4.5c-6.2,34.4-3.7,59.9,6.9,68.2c12.1,9.6,32.6,8.9,44.8-1.4c9.7-8.2,15.2-34.4,14.7-70
		c0-3-2.5-5.5-5.5-5.4C743.4,566.8,743.3,566.9,743.2,566.8L743.2,566.8L743.2,566.8z"/>
	<path class="st2" d="M698.1,606.6c0.6,7,0.6,13.6,1,20.2c0.3,6.5,1.3,12.9,2.9,19.2c1.6,6.1,4.1,11.8,7.9,16
		c3.8,4.2,8.9,7.2,14.4,8.4l0,0c2.9,0.7,4.7,3.7,4,6.6c-0.7,2.9-3.7,4.7-6.6,4l-0.3-0.1c-3.7-1.1-7.2-2.8-10.5-4.9
		c-3.3-2.1-6.1-4.8-8.5-7.9c-4.8-6.1-7.2-13.3-8.6-20.3c-1.2-6.9-1.8-13.8-1.7-20.8c0-6.8,0.4-13.6,0.3-20V607
		c0-1.6,1.3-2.9,2.9-2.8C696.7,604.2,697.9,605.2,698.1,606.6z"/>
	<path class="st2" d="M709.9,419c-5.1,0.4-10.3,1-15.5,1.7s-10.3,1.5-15.4,2.5s-10.2,2-15.2,3.2s-10,2.6-14.9,4.1H649
		c-2.9,0.9-5.9-0.8-6.8-3.7c-0.9-2.9,0.8-5.9,3.7-6.8l0.5-0.1c5.3-1,10.5-2,15.8-2.7s10.6-1.3,15.8-1.8s10.6-0.8,15.9-1
		s10.5-0.3,15.9-0.2c1.3,0.1,2.3,1.2,2.2,2.5C712,417.8,711.2,418.8,709.9,419L709.9,419L709.9,419z"/>
	<g class="st1">
		<path class="st2" d="M697.9,389.2c-24.4,18.5-52.1,32-81.7,39.9l-0.2-55.7C616.1,373.4,662.5,374.6,697.9,389.2z"/>
	</g>
	<path class="st0" d="M507.8,905c-23.8,55-125.4,46-151.1,23.2c-26.3-23.3,21.3-52.5,21.3-52.5c-9.9-16.9-15.4-40.9-18.1-66.3
		c-3.1-28.8-2.7-59.2-1.5-82.6c1.2-24.2,3.3-41,3.3-41l149.9-81.1c-0.1,30.5-5.2,56.6-9.8,77.5c-9.7,44.4-9.1,78.6-5.2,106.5
		c1.9,13.5,4.6,25.6,7.3,36.7C511.3,856.6,518.7,879.8,507.8,905z"/>
	<path class="st3" d="M496.5,788.7c1.9,13.5,4.6,25.6,7.3,36.7c-67.3,11.8-118.8-4.7-143.9-15.9c-3.1-28.8-2.7-59.2-1.5-82.6
		c1.2-24.2,3.3-41,3.3-41l149.9-81.1c-0.1,30.5-5.2,56.6-9.8,77.5C491.9,726.6,492.6,760.8,496.5,788.7z"/>
	<g class="st1">
		<path class="st2" d="M499.7,691.8c-0.6,3.2-1.1,6.3-1.7,9.3C498.6,698.1,499.1,695,499.7,691.8z"/>
	</g>
	<path class="st2" d="M424.2,951.5c-30.4,0-59-8.3-71.2-19.2c-7.1-6.3-10.4-13.7-9.7-21.9c1.5-16.4,18.8-30.5,27.3-36.5
		c-30.1-58.8-15.2-183.4-14.5-188.8c0.4-3,3.1-5.1,6.1-4.7s5.1,3.1,4.7,6.1l0,0c-0.2,1.3-15.9,133,15.6,186.5
		c1.5,2.6,0.7,5.8-1.8,7.4c-7,4.3-25.4,18.3-26.5,31c-0.4,4.6,1.6,8.8,6,12.8c14.5,12.9,57.7,21.3,93.7,13.3
		c17.1-3.8,39.4-12.9,48.8-34.6c9.2-21.4,4.4-41-2.3-68.1c-8.9-36.2-20-81.2-4.1-153.7c5-22.6,9.5-47.6,9.7-76.4
		c0-3,2.4-5.4,5.4-5.4l0,0c3,0,5.4,2.5,5.4,5.5v0c-0.1,29.8-4.8,55.4-9.9,78.7c-15.3,70.1-4.6,113.7,4,148.8
		c6.9,28.1,12.4,50.3,1.7,75c-8.9,20.6-28.4,34.7-56.4,40.9C445.7,950.4,435,951.5,424.2,951.5z"/>
	<path class="st2" d="M466.4,833c-33,0-78.1-3.7-108.7-20.8c-1.9-1.1-2.6-3.7-1.4-5.6c1.1-1.9,3.5-2.5,5.4-1.5
		c50,28.1,145.5,17.9,146.4,17.8c2.2-0.2,4.2,1.4,4.5,3.6c0.2,2.2-1.4,4.2-3.6,4.5C494.9,832.3,480.7,833,466.4,833z"/>
	<g class="st1">
		<path class="st2" d="M356.1,553.2c-3.5,31.8-5.6,59.3-6,82.2C349.5,614.1,351.6,586.5,356.1,553.2z"/>
	</g>
	<g class="st1">
		<path class="st2" d="M671.3,592.8c-0.2-12.3-0.9-25.6-2.3-39.6C670.7,566.3,671.5,579.5,671.3,592.8z"/>
	</g>
	<path class="st0" d="M476.4,766.4c37.3,2.5,74.6-4,108.8-19.2c36-16,63.6-45,77.2-83.4c20.9-59.2,5.9-190-50.8-338.6l-184.4-11.7
		c-83.9,160.3-102.5,335.7-67.9,393.3c3.4,5.9,7.5,11.4,12.1,16.4c19.8,20.4,51,32.4,76.3,38.5"/>
	<path class="st3" d="M670.8,616.7c-1.1,18.6-4,34.5-8.4,47.2c-13.5,38.3-41.2,67.4-77.2,83.4c-34.2,15.1-71.5,21.7-108.8,19.2
		l-28.8-4.7c-25.3-6-56.5-18-76.3-38.5c-4.7-5-8.7-10.5-12.1-16.4c-21-35-22.4-113.3-1.5-205.4c4.4-19.3,7.5-38.5,13.9-58.8
		c3.1-10,8.8-20.9,12.4-31c12.1-33.7,26.4-66.4,43-98.1l184.4,11.7c11.2,29.4,20.8,58.1,28.8,85.7c0,0,0,0,0,0.1
		C664.2,493.1,673.9,565.3,670.8,616.7z"/>
	<path class="st2" d="M369.1,464.5c0.2,1.9,0.3,3.9,0.2,5.8c0,1.9-0.2,3.8-0.4,5.6c-0.4,3.7-1,7.3-1.8,10.9
		c-1.4,7.2-3.3,14.3-5.1,21.4c-1.8,7.1-3.2,14.3-4.5,21.5s-2.5,14.4-3.6,21.7c-4.3,29-6.7,58.3-5.2,87.3c0.8,14.5,2.5,28.9,6.1,42.7
		c1.7,6.8,4.2,13.4,7.4,19.6c1.7,3.1,3.5,6.1,5.4,9c1.9,2.9,4,5.6,6.3,8.2c9.4,10.1,21.5,18,34.3,24.2c3.2,1.6,6.5,3,9.8,4.3
		c3.3,1.4,6.8,2.4,10.2,3.5c3.4,1.1,6.8,2.3,10.1,3.8c1.7,0.8,3.3,1.6,4.9,2.6c1.7,1,3.3,2.2,4.8,3.6l0.1,0.1c0.8,0.8,0.8,2.1,0,2.9
		c-0.3,0.3-0.6,0.5-0.9,0.6c-3.8,1-7.9,1.1-11.8,0.5c-3.8-0.6-7.4-1.6-11-2.9c-3.5-1.3-7-2.9-10.5-4.3s-7-3-10.4-4.6
		c-13.7-6.6-26.9-15.1-37.7-26.7c-2.6-2.9-5.1-6.1-7.3-9.3c-2.2-3.2-4.2-6.6-6.1-10c-3.5-6.9-6.3-14.3-8.3-21.8
		c-4-14.8-5.7-29.9-6.5-44.9c-1.5-30.1,1-60,5.3-89.5c1.1-7.4,2.3-14.7,3.7-22c0.7-3.7,1.4-7.3,2.1-11l2.1-11
		c1.3-7.3,3-14.6,5.1-21.8c2.1-7.2,4.8-14.2,9.5-20.5c0.6-0.9,1.9-1,2.7-0.4c0.4,0.3,0.7,0.8,0.8,1.3L369.1,464.5L369.1,464.5z"/>
	<path class="st2" d="M492.4,772.4c-5.3,0-10.8-0.2-16.3-0.6c-3-0.2-5.3-2.8-5-5.8s2.8-5.3,5.8-5l0,0c36.4,2.5,72.9-3.9,106.2-18.7
		c34.8-15.3,61.7-44.3,74.2-80.2c18.3-51.8,10-174.3-49.6-331.6L426.8,319c-3-0.2-5.3-2.8-5.1-5.8c0.2-3,2.8-5.3,5.8-5.1l184.4,11.7
		c2.1,0.1,4,1.5,4.7,3.5c53.4,139.8,73.8,277.4,50.9,342.4c-13.5,38.7-42.5,70.1-80.1,86.5C557.6,765.5,525.2,772.4,492.4,772.4z"/>
	<path class="st2" d="M492.4,772.4c-5.3,0-10.8-0.2-16.3-0.6c-3-0.2-5.3-2.8-5-5.8s2.8-5.3,5.8-5c36.4,2.5,72.9-3.9,106.2-18.7
		c34.8-15.3,61.7-44.3,74.2-80.2c20.2-57.2,5-175.5-38.7-301.6c-0.8-2.9,0.8-5.9,3.7-6.8c2.7-0.8,5.6,0.6,6.6,3.2
		c44.4,128.2,59.6,249.4,38.7,308.7c-13.5,38.7-42.5,70.1-80.1,86.5C557.5,765.5,525.1,772.4,492.4,772.4z"/>
	<path class="st2" d="M451.6,878.1c-6-1.9-12.1-3.4-18.3-4.2c-6.1-0.9-12.2-1.2-18.3-0.9c-3,0-6,0.5-9,0.8c-2.9,0.6-5.9,0.9-8.7,1.7
		c-1.4,0.4-2.9,0.6-4.3,1s-2.8,0.9-4.3,1.3c-1.4,0.4-2.8,0.9-4.2,1.4c-1.4,0.5-2.8,1-4.3,1.4l-0.5,0.2c-2.9,0.9-5.9-0.7-6.8-3.6
		c-0.8-2.5,0.3-5.2,2.7-6.4c6-3.3,12.6-5.6,19.4-6.8c3.4-0.6,6.8-1,10.2-1.2c1.7-0.1,3.4,0,5.1,0.1c1.7,0,3.4,0.1,5.1,0.3
		c6.7,0.6,13.3,2.1,19.6,4.4c6.2,2.2,12.1,5.3,17.5,9.2c0.3,0.3,0.4,0.7,0.2,1.1C452.4,878.2,452,878.3,451.6,878.1L451.6,878.1z"/>
	<g class="st1">
		<path class="st2" d="M671.3,592.8c-0.3,20.8-71.5-86.7-71.5-72.5c0,31.3,10.3,78.2,7.7,120.9c-0.7,11-1.7,21.4-2.7,30.7
			c-2.3,20.8-7.9,36.2-19.5,40.4c-29,10.5-59.7,15.9-90.5,16.1c-5.9,0-12-0.1-18.3-0.4c-26.3-1.5-87.5-13.3-113-43.3
			c-1.5-1.8-2.9-3.6-4.2-5.6c-5.6-8.6-8.6-23.4-9.2-43.8c-0.7,34.3,2.3,58.5,9.2,71.4c0.1,0.2,0.2,0.3,0.3,0.5
			c-0.4,5.7-0.9,12.2-1.2,19.4c0.3,0.7,0.6,1.3,0.9,1.9c15.6,29.2,53.4,45.8,84.2,53.8c14.5,3.7,25.9,15,29.7,29.5
			c8.9,34.4,25.3,52,17,77.4C473,941.4,384.7,926,350,905.5c-2.6,7.4-1.6,15.3,6.7,22.7C382.3,951,484,960.1,507.8,905
			c14.8-34.2-3.9-64.5-11.2-116.3c-0.4-3.1-0.8-6.3-1.2-9.5c-0.1-0.8-0.2-1.5-0.2-2.3s-0.2-1.6-0.2-2.5s-0.2-1.9-0.3-2.9
			c-0.1-1.5-0.2-2.9-0.3-4.4c0,0,0-0.1,0-0.2c31.3-0.3,62.3-7,90.9-19.7c36-16,63.6-45,77.1-83.4C668.7,646.1,671.7,622,671.3,592.8
			z"/>
	</g>
	<path class="st0" d="M653.8,925.5c-23.8,55-125.4,46-151.1,23.2c-26.3-23.3,21.2-52.5,21.2-52.5c-16.7-19.6-24.7-46.5-27.9-73.1
		c-6-48.4,3.5-95.6,3.5-95.6l158-102.3c-0.1,30.5-5.2,56.6-9.8,77.5c-11.6,52.8-8.5,91.2-2.6,121.8
		C653.4,867.3,667.1,894.8,653.8,925.5z"/>
	<path class="st3" d="M647.7,702.7c-11.6,52.8-8.5,91.2-2.6,121.8c-90.9,31.8-147.6-0.5-149.1-1.4c-6-48.4,3.5-95.6,3.5-95.6
		l60.1-46.9l97.9-55.4C657.4,655.7,652.3,681.8,647.7,702.7z"/>
	<g class="st1">
		<path class="st2" d="M647.7,702.7c-11.6,52.8-8.5,91.2-2.6,121.8c-90.9,31.8-147.6-0.5-149.1-1.4c-0.4-3.3-0.7-6.5-1-9.7l0.8,0.2
			c57.7,15.8,116-24.6,120.8-84.3c1.3-15.3,3.6-30.4,6.9-45.4c3.3-14.5,5.9-29.1,7.7-43.9l26.3-14.9
			C657.4,655.7,652.3,681.8,647.7,702.7z"/>
	</g>
	<g class="st1">
		<path class="st2" d="M647.7,703c-27.8,126.8,28.8,170.2,6.1,222.9c-23.8,55-125.4,46-151.1,23.2c-6.9-6.1-8.7-12.6-7.6-18.9
			c34.5,18.2,121,21.3,142.6-28.8c7.8-18.1-39.4-53.3-39.8-92.7c-0.3-33,9-66.7,18.7-92.8c7.8-21,12.6-86.4,54.6-109.3
			c-0.6,22.4-3.4,41.3-8.4,56c-2.4,0.8-5.2,1.6-8.2,2.3C652.8,679,650.2,691.8,647.7,703z"/>
	</g>
	<path class="st2" d="M501.3,728.2c0.1,14.7-0.6,29.1-1.1,43.5c-0.3,14.4-0.5,28.8,0.6,43c0.5,7.1,1.4,14.2,2.7,21.2
		c1.2,7,2.9,13.9,5.1,20.6c2.1,6.7,4.8,13.2,8,19.4c3.2,6.1,7.1,11.9,11.5,17.1c1.9,2.3,1.6,5.8-0.7,7.7c-0.2,0.1-0.4,0.3-0.5,0.4
		l0,0c-2.1,1.3-4.4,2.9-6.5,4.5s-4.2,3.3-6.2,5.1c-3.9,3.4-7.3,7.3-10.1,11.6c-2.6,4.1-4.2,8.5-3.8,12.4s2.8,7.5,6.5,10.6
		c4,3.1,8.4,5.6,13.2,7.4c5,2,10.1,3.6,15.3,4.8c10.6,2.4,21.4,3.7,32.3,3.9c5.4,0.1,10.9-0.1,16.3-0.6c5.4-0.5,10.7-1.3,16-2.5
		c10.5-2.3,20.6-6.1,29.3-11.8c4.3-2.8,8.2-6.2,11.6-10.1c3.3-3.9,5.9-8.2,8-12.9c4-9.6,5.7-20.1,4.8-30.5
		c-0.7-10.6-3.3-21.4-5.9-32.3s-5.5-21.9-7.6-33.2c-2.3-11.2-3.9-22.6-4.8-34c-0.9-11.5-1.1-23-0.6-34.4c0.5-11.4,1.7-22.9,3.4-34.2
		c1.7-11.3,4.2-22.6,6.5-33.4s3.5-22,5.1-32.9s2.9-21.9,6-33l0,0c0.3-1,1.3-1.6,2.3-1.3c0.6,0.2,1.1,0.7,1.3,1.3
		c3,11.4,2.9,23,1.8,34.4s-3.6,22.6-5.9,33.7s-4.7,21.9-6.4,32.9c-1.7,10.9-2.7,22-3.3,33c-1,22.1,0.8,44.2,5.2,65.9
		c2.1,10.9,4.8,21.7,7.5,32.7s5.3,22.2,6.2,34.1c0.5,6,0.2,12-0.7,18c-0.9,6-2.6,11.9-5,17.5c-2.5,5.7-5.8,10.9-9.8,15.7
		c-4.1,4.6-8.7,8.6-13.8,12c-10.1,6.7-21.5,10.9-33,13.4c-5.7,1.2-11.5,2.2-17.4,2.7c-5.8,0.5-11.6,0.7-17.5,0.7
		c-11.7-0.2-23.3-1.6-34.6-4.2c-5.7-1.3-11.4-3.1-16.9-5.2c-5.8-2.2-11.2-5.3-16.1-9.2c-0.6-0.5-1.3-1.1-1.8-1.7
		c-0.6-0.6-1.2-1.1-1.8-1.8c-1.2-1.3-2.2-2.7-3.1-4.1c-2-3.1-3.2-6.6-3.6-10.2c-0.4-3.6,0-7.2,1.1-10.6c1-3.1,2.5-6.1,4.3-8.8
		c3.4-5.1,7.4-9.8,12-13.8c2.2-2,4.5-3.9,6.8-5.7c2.4-1.8,4.7-3.5,7.4-5.2l-1.3,8.2c-4.9-5.9-9.2-12.4-12.8-19.2
		c-3.5-6.8-6.4-13.8-8.7-21.1c-2.3-7.2-4.1-14.5-5.5-21.9c-0.8-3.7-1.3-7.4-1.9-11.1s-1-7.4-1.3-11.1c-1.6-14.8-1.8-29.8-0.6-44.6
		c0.5-7.4,1.4-14.8,2.8-22.1c1.3-7.3,3.3-14.6,6-21.5c0.4-0.9,1.4-1.4,2.4-1.1C500.9,726.7,501.3,727.4,501.3,728.2L501.3,728.2
		L501.3,728.2z"/>
	<path class="st2" d="M569.7,841.9c-24.2,0-51-3.6-75.5-15c-2-1-2.9-3.4-2-5.4c1-2,3.4-2.9,5.4-2l0,0c63,29.4,145.5,3.8,146.3,3.6
		c2.1-0.7,4.4,0.5,5.1,2.7s-0.5,4.4-2.7,5.1C621.5,838,595.7,841.8,569.7,841.9z"/>
	<path class="st2" d="M605.9,907c-1.1,0-2.1-0.3-3-0.9c-1.4-0.9-33.7-21.7-76.9-4.5c-2.8,1.2-6,0-7.2-2.8c-1.2-2.8,0-6,2.8-7.2
		c0.1-0.1,0.2-0.1,0.4-0.1c48.8-19.5,85.5,4.5,87,5.5c2.5,1.7,3.2,5.1,1.5,7.5C609.5,906.1,607.8,907,605.9,907z"/>
	<path class="st2" d="M696.9,720.4c0-0.2,0-0.5,0-0.7l-0.1-0.9c-0.1-0.6-0.2-1.2-0.3-1.9c-0.3-1.3-0.6-2.5-1-3.7
		c-0.8-2.5-1.9-4.8-3.2-7.1c-2.6-4.5-6.4-8.1-11-10.6c-1.2-0.6-2.4-1.1-3.7-1.6c-1.3-0.5-2.7-1-4-1.5c-2.7-0.9-5.4-1.7-8.2-2.4
		c-2.8-0.7-5.6-1.2-8.4-1.6c-2.7-0.4-5.5-0.5-8.3-0.5h-0.3c-2.8,0-5.5,0.2-8.3,0.6c-2.8,0.4-5.6,1-8.3,1.7c-2.8,0.7-5.5,1.5-8.2,2.4
		c-1.3,0.5-2.7,0.9-4,1.5c-1.3,0.5-2.5,1-3.7,1.6c-4.5,2.5-8.2,6.1-10.8,10.6c-1.3,2.2-2.3,4.6-3.1,7c-0.4,1.2-0.7,2.5-0.9,3.7
		c-0.1,0.6-0.2,1.2-0.3,1.8l-0.1,0.9c0,0.2,0,0.5,0,0.7c6.4,3.2,9,10.9,5.8,17.2c-3.2,6.4-10.9,9-17.2,5.8
		c-5.6-2.8-8.4-9.3-6.6-15.3l3.3-10.8c0.2-0.5,0.3-1,0.5-1.5l0.5-1.2c0.3-0.8,0.7-1.6,1.1-2.3c0.8-1.5,1.5-3,2.4-4.4
		c1.7-2.9,3.7-5.6,5.9-8.1c4.3-5.1,9.8-9.1,16.1-11.5c1.5-0.6,3-1.1,4.5-1.5c1.5-0.4,2.9-0.8,4.4-1.2c2.9-0.7,5.9-1.4,8.8-1.9
		s5.9-1,9-1.3c3.1-0.4,6.2-0.5,9.3-0.5h-0.3c3.1,0,6.2,0.2,9.2,0.5c3,0.3,6,0.8,8.9,1.4s5.9,1.2,8.8,2c1.5,0.4,2.9,0.8,4.4,1.2
		c1.5,0.4,3,0.9,4.5,1.5c6.1,2.5,11.6,6.4,15.8,11.5c2.2,2.5,4.1,5.2,5.8,8c0.8,1.4,1.6,2.9,2.4,4.4c0.4,0.8,0.7,1.5,1.1,2.3
		l0.5,1.2c0.2,0.5,0.4,0.9,0.5,1.4l1.8,6c1.3,4.8-1.6,9.6-6.3,10.9c-4.5,1.2-9.2-1.3-10.7-5.7C694.3,725.9,694.9,722.7,696.9,720.4z
		"/>
	<path class="st4" d="M545.6,719h206c14.2,0,25.8,11.5,25.8,25.8v136.1c0,14.2-11.5,25.8-25.8,25.8h-206
		c-14.2,0-25.8-11.5-25.8-25.8V744.8C519.8,730.5,531.4,719,545.6,719z"/>
	<path class="st2" d="M754.3,912.1H542.8c-15.7,0-28.4-12.7-28.4-28.4V742c0-15.7,12.7-28.4,28.4-28.5h211.5
		c15.7,0,28.4,12.7,28.4,28.5v141.7C782.8,899.4,770,912.1,754.3,912.1z M542.8,724.4c-9.7,0-17.5,7.9-17.6,17.5v141.7
		c0,9.7,7.9,17.5,17.5,17.5h211.5c9.7,0,17.6-7.8,17.6-17.5c0,0,0,0,0,0V742c0-9.7-7.9-17.6-17.5-17.6L542.8,724.4L542.8,724.4z"/>
	<g class="st1">
		<path class="st2" d="M757.7,831.5v-3.7c11.3-1.7,19.6-11.4,19.6-22.7V763c0-12.7-10.3-23-23-23H575.6v137.9h-34.4
			c-12.7,0-23-10.3-23-23l0,0v28.8c0,12.7,10.3,23,23,23l0,0h211.5c12.7,0,23-10.3,23-23l0,0v-28.8c0,12.5-10,22.7-22.5,23v-39.2
			C756,837.3,757.7,834.6,757.7,831.5z M730.7,877.9H598.1v-39.2c2.8-1.3,4.5-4.1,4.5-7.1V828h128.1V877.9L730.7,877.9z"/>
	</g>
	<g class="st5">
		<path class="st6" d="M575.6,740v88h-32.8c-12.7,0-23-10.3-23-23v-42c0-12.7,10.3-23,23-23H575.6L575.6,740z"/>
	</g>
	<path class="st4" d="M777.3,742v42c0,12.7-10.3,23-23,23l0,0H542.8c-12.7,0-23-10.3-23-23l0,0v-42c0-12.7,10.3-23,23-23l0,0h211.5
		C767.1,719,777.3,729.3,777.3,742L777.3,742z"/>
	<g class="st5">
		<path class="st0" d="M777.3,742v19.3c0-12.7-10.3-23-23-23l0,0h-39.6c0,0.1,0,0.2,0,0.3c0,10.6-13.4,19.1-29.9,19.1
			s-29.8-8.6-29.8-19.1c0-0.1,0-0.2,0-0.3H542.8c-12.7,0-23,10.3-23,23l0,0V742c0-12.7,10.3-23,23-23l0,0h211.5
			C767,719,777.3,729.3,777.3,742z"/>
	</g>
	<path class="st2" d="M754.3,812.5H542.8c-15.7,0-28.4-12.8-28.4-28.5v-42c0-15.7,12.7-28.4,28.4-28.5h211.5
		c15.7,0,28.4,12.7,28.4,28.5v42C782.8,799.7,770.1,812.4,754.3,812.5z M542.8,724.5c-9.7,0-17.5,7.9-17.5,17.5v42
		c0,9.7,7.9,17.5,17.5,17.5h211.5c9.7,0,17.6-7.8,17.6-17.5c0,0,0,0,0,0v-42c0-9.7-7.9-17.6-17.5-17.6L542.8,724.5L542.8,724.5z"/>
	<path class="st7" d="M570.5,718.4h4.7c4.9,0,8.9,4,8.9,8.9v170.5c0,4.9-4,8.9-8.9,8.9h-4.7c-4.9,0-8.9-4-8.9-8.9V727.3
		C561.6,722.4,565.6,718.4,570.5,718.4z"/>
	<g class="st1">
		<path class="st2" d="M598.1,726.3V740h-22.5v-13.7c0-4.4,3.6-7.9,7.9-7.9h6.7C594.6,718.4,598.1,722,598.1,726.3z"/>
	</g>
	<g class="st5">
		<path class="st6" d="M575.6,788.2v51c-3.6-0.9-6.1-4-6.1-7.7V796C569.5,792.3,572,789.1,575.6,788.2z"/>
	</g>
	<path class="st8" d="M570.5,718.4h4.7c4.9,0,8.9,4,8.9,8.9v170.5c0,4.9-4,8.9-8.9,8.9h-4.7c-4.9,0-8.9-4-8.9-8.9V727.3
		C561.6,722.4,565.6,718.4,570.5,718.4z"/>
	<path class="st8" d="M725.6,718.4h4.7c4.9,0,8.9,4,8.9,8.9v170.5c0,4.9-4,8.9-8.9,8.9h-4.7c-4.9,0-8.9-4-8.9-8.9V727.3
		C716.7,722.4,720.7,718.4,725.6,718.4z"/>
	<path class="st2" d="M575.2,912.1h-4.7c-7.9,0-14.3-6.4-14.3-14.3V727.3c0-7.9,6.4-14.3,14.3-14.3h4.7c7.9,0,14.3,6.4,14.3,14.3
		v170.5C589.5,905.7,583.1,912.1,575.2,912.1z M570.5,723.8c-1.9,0-3.4,1.6-3.4,3.4v170.5c0,1.9,1.5,3.4,3.4,3.5h4.7
		c1.9,0,3.4-1.6,3.4-3.5V727.3c0-1.9-1.6-3.4-3.4-3.4H570.5z"/>
	<path class="st2" d="M730.3,912.1h-4.7c-7.9,0-14.3-6.4-14.3-14.3V727.3c0-7.9,6.4-14.3,14.3-14.3h4.7c7.9,0,14.3,6.4,14.3,14.3
		v170.5C744.6,905.7,738.2,912.1,730.3,912.1z M725.6,723.8c-1.9,0-3.4,1.6-3.4,3.4v170.5c0,1.9,1.5,3.4,3.4,3.5h4.7
		c1.9,0,3.4-1.6,3.4-3.5V727.3c0-1.9-1.6-3.4-3.4-3.4H725.6z"/>
	<path class="st9" d="M720.3,787.8h15.3c4.9,0,8.9,4,8.9,8.9v33.7c0,4.9-4,8.9-8.9,8.9h-15.3c-4.9,0-8.9-4-8.9-8.9v-33.7
		C711.4,791.7,715.4,787.8,720.3,787.8z"/>
	<path class="st2" d="M735.6,844.6h-15.3c-7.9,0-14.3-6.4-14.3-14.3v-33.7c0-7.9,6.4-14.3,14.3-14.3h15.3c7.9,0,14.3,6.4,14.3,14.3
		v33.7C749.9,838.2,743.5,844.6,735.6,844.6z M720.3,793.2c-1.9,0-3.4,1.6-3.4,3.4v33.7c0,1.9,1.6,3.4,3.4,3.4h15.3
		c1.9,0,3.4-1.6,3.4-3.4v-33.7c0-1.9-1.6-3.4-3.4-3.4L720.3,793.2L720.3,793.2z"/>
	<path class="st9" d="M564.4,788h15.3c4.9,0,8.9,4,8.9,8.9v33.7c0,4.9-4,8.9-8.9,8.9h-15.3c-4.9,0-8.9-4-8.9-8.9v-33.7
		C555.5,792,559.5,788,564.4,788z"/>
	<path class="st2" d="M579.9,844.6h-15.4c-7.9,0-14.3-6.4-14.3-14.3v-33.7c0-7.9,6.4-14.3,14.3-14.3h15.4c7.9,0,14.3,6.4,14.3,14.3
		v33.7C594.3,838.2,587.8,844.6,579.9,844.6z M564.6,793.2c-1.9,0-3.4,1.6-3.4,3.4v33.7c0,1.9,1.6,3.4,3.4,3.4h15.3
		c1.9,0,3.4-1.6,3.4-3.4v-33.7c0-1.9-1.6-3.4-3.4-3.4L564.6,793.2L564.6,793.2z"/>
	<path class="st0" d="M724.7,643c-1.1,70.1-32.4,78.6-72,78.4c-33-0.2-35.2-25.5-35.2-25.5c-7.8-2.5-13.7-8.9-15.5-16.9
		c-3.1-12.5,9.9-31.4,13.9-36.8c0.7-1,1.2-1.5,1.2-1.5c1-7.5,1.5-15,1.4-22.5c0-2.8,0-5.8-0.2-9c-1.3-30.5-7.5-60.5-18.4-89
		l32.6-118c57.8,62.3,83.7,121.1,90.7,204.1c0.3,3.8,0.6,7.6,0.8,11.5c0.1,1.8,0.2,3.7,0.3,5.6C724.6,630.5,724.8,637,724.7,643z"/>
	<g class="st1">
		<path class="st2" d="M724.7,643c-1.1,70.1-32.4,78.6-72,78.4c-33-0.2-35.2-25.5-35.2-25.5c-7.8-2.5-13.7-8.9-15.5-16.9
			c-1.1-4.4-0.2-9.6,1.6-14.7c4.6,9.8,15.1,3.3,15.1,3.3s1,34.2,34,34.4c38.6,0.2,69.3-7.9,71.8-73.3
			C724.7,633.8,724.8,638.5,724.7,643z"/>
	</g>
	<path class="st3" d="M723.9,617.8c-38.3-2.3-85-0.5-105.6,0.4c0-21.5-3.1-56.8-18.6-98l10.6-55.1l22.1-62.9
		C692.9,467.4,718.4,528.7,723.9,617.8z"/>
	<g class="st10">
		<path class="st0" d="M723.9,617.8c-38.3-2.3-85-0.5-105.6,0.4c0-3.6-0.1-7.6-0.3-11.9c23.7-0.8,59-1.5,89.1,0.3
			c-5.1-81.5-26.8-139.7-76.7-198.8l1.9-5.5C692.9,467.4,718.4,528.7,723.9,617.8z"/>
	</g>
	<path class="st2" d="M612.1,598.1c-1.1-6.4-1.9-12.8-2.8-19.3s-1.7-12.9-2.7-19.4s-2.2-12.9-3.5-19.4s-2.7-13-4-19.5
		c-0.1-0.4,0.2-0.8,0.6-0.9c0.3-0.1,0.6,0.1,0.8,0.4c3.3,5.9,6.2,12,8.8,18.2c2.6,6.2,4.9,12.6,6.8,19.1c2,6.5,3.6,13.1,4.8,19.7
		c1.2,6.7,1.9,13.4,2,20.2c0,3-2.4,5.5-5.5,5.5C614.8,602.7,612.6,600.8,612.1,598.1L612.1,598.1L612.1,598.1z"/>
	<path class="st2" d="M654.1,726.9h-1.4c-29.7-0.2-37.8-18.9-39.9-26.9c-8.1-3.7-14.1-10.9-16.1-19.6c-3.7-15.3,10.9-36.2,15.1-41.8
		c1.3-11.6,1.5-23.2,0.7-34.9c-0.2-3,2.1-5.6,5.1-5.8c3-0.2,5.6,2.1,5.8,5.1l0,0c1.4,23.6-0.9,38-1,38.6c-0.1,0.9-0.5,1.8-1.1,2.5
		c-6.6,8.4-16.2,24.9-14,33.7c1.3,6,5.7,11,11.6,12.9c2.2,0.6,3.8,2.5,4,4.8c0.2,2,2.9,20.4,29.8,20.5c18.7,0.1,37.7-1.6,49.9-14.5
		c12.9-13.6,18.2-39,16.2-77.9c-4.8-91.8-30.1-152.9-90.4-217.7c-2-2.2-1.9-5.7,0.3-7.7c2.2-2,5.7-1.9,7.7,0.3
		c62.2,67,88.3,130,93.3,224.6c2.2,42.6-3.9,69.9-19.2,85.9C695.8,724.6,674.8,726.9,654.1,726.9z"/>
	<path class="st2" d="M621.7,666.1l1.2,29.3v0.1c0.1,3-2.2,5.6-5.2,5.7s-5.6-2.2-5.7-5.2c0-0.3,0-0.6,0-0.9l3.6-29.2
		c0.1-1.7,1.5-3,3.2-2.9C620.5,663,621.8,664.4,621.7,666.1L621.7,666.1L621.7,666.1z"/>
	<path class="st0" d="M186.7,357.5c-6.4-21.8,15.7-39.6,15.7-39.6s-19.9-35.9-4.4-45.6c8.3-5.2,31.4,19.3,36.8,35.4
		c3.3,10.2,5.1,20.8,5.4,31.5"/>
	<path class="st2" d="M185.9,357.7c-0.5-0.9-0.9-1.8-1.3-2.7c-0.2-0.5-0.4-0.9-0.6-1.4s-0.3-1-0.4-1.5c-0.2-1-0.6-2-0.7-3l-0.3-3.2
		c-0.1-4.2,0.6-8.4,2-12.4c1.4-3.9,3.4-7.6,5.8-11c1.2-1.7,2.5-3.3,3.8-4.8c0.7-0.8,1.4-1.5,2.1-2.3s1.4-1.4,2.4-2.3l-1.4,7.4
		c-2.9-5.2-5.3-10.7-7.2-16.5c-2.1-5.9-3.2-12.1-3.5-18.4c-0.1-3.6,0.5-7.3,1.9-10.6c0.4-0.9,0.9-1.8,1.4-2.7c0.6-0.9,1.3-1.7,2-2.4
		l1.1-1.1l1.2-0.9c1.1-0.9,2.4-1.5,3.8-1.8c2.4-0.5,4.9-0.4,7.2,0.4c1.7,0.6,3.4,1.3,5,2.2c2.8,1.6,5.4,3.5,7.8,5.6
		c4.6,3.9,8.8,8.4,12.4,13.3c1.8,2.4,3.5,5,5,7.6c1.6,2.7,2.9,5.6,4,8.5c0.3,0.8,0.5,1.6,0.8,2.3l0.6,2.2c0.4,1.5,0.7,2.9,1,4.4
		c0.5,2.9,0.9,5.9,1.1,8.8c0.4,5.9-0.2,11.9-1.7,17.6c-0.1,0.5-0.7,0.8-1.2,0.7c-0.3-0.1-0.5-0.3-0.6-0.6v0
		c-1.9-5.5-3.5-10.9-5.1-16.1c-0.8-2.6-1.6-5.2-2.5-7.8c-0.4-1.3-0.9-2.5-1.3-3.8l-0.7-1.9c-0.2-0.6-0.4-1.1-0.7-1.7
		c-1.1-2.3-2.3-4.5-3.6-6.6c-1.4-2.2-2.9-4.3-4.5-6.5c-3.2-4.2-6.7-8.1-10.5-11.7c-1.8-1.7-3.7-3.2-5.8-4.5c-0.8-0.5-1.8-1-2.7-1.3
		c-0.4-0.1-0.8-0.2-1.2-0.3c0,0,0.1-0.1,0.1-0.1c0,0,0.1-0.1,0,0l-0.2,0.2l-0.5,0.3c-0.1,0.1-0.3,0.3-0.4,0.4
		c-0.3,0.3-0.5,0.5-0.7,0.8c-0.2,0.3-0.4,0.7-0.6,1.1c-0.8,1.9-1.1,4-1,6c0.1,4.7,1.6,9.8,3.4,14.7c0.9,2.5,2,5,3.1,7.4
		s2.3,4.9,3.4,7.2l0.2,0.3c1.2,2.4,0.6,5.4-1.6,7.1c-0.5,0.4-1.2,1-1.8,1.5l-1.8,1.7c-1.2,1.2-2.4,2.4-3.5,3.7
		c-2.2,2.5-4.2,5.3-6,8.1c-1.7,2.9-3.1,6-4.1,9.2c-0.9,3.4-1.4,7-1.4,10.5v0.1c0,0.5-0.5,0.9-1,0.9C186.3,358.2,186,358,185.9,357.7
		z"/>
	<g class="st1">
		<path class="st2" d="M724.7,643c-1.4,0.6-3,0.8-4.5,0.7c-27.4-2.8-67-3.1-98.9-0.3c-1.9,0.2-3.7-0.2-5.4-1.1
			c0.7-1,1.2-1.5,1.2-1.5c1-7.5,1.5-15,1.4-22.5c0-2.8,0-5.8-0.2-9c32.2-4.3,73.3-5.6,101.6-3.7c1.2,0.1,2.3,0.4,3.3,0.8
			c0.3,3.8,0.6,7.6,0.8,11.5c0.1,1.8,0.2,3.7,0.3,5.6C724.6,630.5,724.8,637,724.7,643z"/>
	</g>
	<path class="st0" d="M720.1,617.9c-27.4-2.8-67-3.1-98.9-0.4c-5.3,0.5-10-3.4-10.4-8.7c0-0.1,0-0.3,0-0.4c-0.2-4.5-0.5-9.3-1-14.5
		c-0.5-5.2,3.1-9.8,8.3-10.5c32.3-4.3,73.5-5.6,101.8-3.8c4.6,0.3,8.3,3.9,8.9,8.4c0.8,6.3,1.4,12.8,2,19.3c0.5,5.3-3.4,10-8.7,10.5
		C721.4,618,720.7,618,720.1,617.9z"/>
	<g class="st1">
		<path class="st2" d="M720.1,617.9c-27.4-2.8-67-3.1-98.9-0.3c-5.3,0.5-10-3.4-10.4-8.7c0-0.1,0-0.3,0-0.4
			c-0.1-2.4-0.3-4.8-0.4-7.4c31.5-2.6,70.2-2.3,97.1,0.5c5.3,0.5,10-3.4,10.5-8.7c0.1-0.6,0.1-1.2,0-1.8c-0.3-3.9-0.7-7.8-1.1-11.6
			l2.9,0.2c4.6,0.3,8.3,3.9,8.9,8.5c0.8,6.3,1.4,12.8,2,19.3c0.5,5.3-3.4,10-8.7,10.4C721.3,618,720.7,618,720.1,617.9z"/>
	</g>
	<path class="st2" d="M721.1,623.4c-0.5,0-1,0-1.5-0.1l0,0c-28-2.9-67.3-3-97.9-0.3c-4.1,0.3-8.2-1-11.3-3.7
		c-3.1-2.7-4.9-6.5-5.1-10.6c-0.2-4.7-0.5-9.4-1-14.2c-0.8-8.1,4.9-15.4,13-16.4c31.7-4.2,73-5.7,102.8-3.8c7.2,0.5,13.1,6,14,13.2
		c0.8,6.4,1.4,13,2,19.5c0.7,8.3-5.4,15.6-13.7,16.3C722,623.4,721.5,623.4,721.1,623.4z M720.7,612.5c1.2,0.1,2.4-0.3,3.3-1.2
		c0.9-0.9,1.4-2.1,1.3-3.4c-0.5-6.5-1.2-12.9-2-19.1c-0.2-2-1.9-3.5-3.8-3.7c-29.2-1.9-69.7-0.4-100.7,3.7c-2.2,0.3-3.8,2.3-3.6,4.6
		c0.5,5,0.8,9.9,1,14.8c0,1.1,0.6,2.2,1.4,2.9c0.9,0.8,2,1.1,3.2,1C651.8,609.4,692,609.6,720.7,612.5L720.7,612.5L720.7,612.5z"/>
	<path class="st0" d="M623.7,358.7C587.7,389.9,436,553.2,436,553.2L392.3,390c10.2-26.1,21.9-51.6,34.9-76.5l184.4,11.8
		C615.9,336.5,619.9,347.7,623.7,358.7z"/>
	<path class="st0" d="M623.7,358.7C587.7,389.9,436,553.2,436,553.2L392.3,390c10.2-26.1,21.9-51.6,34.9-76.5l184.4,11.8
		C615.9,336.5,619.9,347.7,623.7,358.7z"/>
	<path class="st2" d="M436,558.6c-2.5,0-4.6-1.6-5.3-4l-43.7-163.2c-0.3-1.1-0.2-2.3,0.2-3.4c10.3-26.3,22-52,35.1-77
		c1-1.9,3-3,5.2-2.9l184.4,11.8c2.1,0.1,4,1.5,4.7,3.5c4.2,11.1,8.3,22.4,12.2,33.6c0.7,2.1,0.1,4.4-1.6,5.9
		C592,393.5,441.5,555.2,440,556.8C439,558,437.5,558.6,436,558.6z M398,390.3l40.7,151.9c29.3-31.4,143.2-153.2,178.7-185.2
		c-3.1-8.9-6.4-17.8-9.7-26.6l-177.3-11.3C418.4,342.3,407.6,366.1,398,390.3L398,390.3z"/>
	<path class="st2" d="M436,558.6c-2.5,0-4.6-1.6-5.3-4l-43.7-163.2c-0.3-1.1-0.2-2.3,0.2-3.4c10.3-26.3,22-52,35.1-77
		c1-1.9,3-3,5.2-2.9l184.4,11.8c2.1,0.1,4,1.5,4.7,3.5c4.2,11.1,8.3,22.4,12.2,33.6c0.7,2.1,0.1,4.4-1.6,5.9
		c-8.2,7.1-23.4,22-45,44.1C525.1,465.3,440.8,556,440,556.9C439,558,437.5,558.6,436,558.6z M398,390.3l40.7,151.9
		c21.2-22.7,87.9-94.1,135.8-142.9c19.7-20.1,34.1-34.3,42.9-42.2c-3.1-8.9-6.4-17.8-9.7-26.6l-177.3-11.3
		C418.4,342.3,407.6,366.1,398,390.3L398,390.3z"/>
	<path class="st8" d="M443.9,420.2l-10.2,13.5c-1.9,2.5-2.3,5.9-1,8.8l7.1,15.8c1.3,3,4.3,5,7.6,5.1l11.3,0.5c2.7,0.1,5.2-1,7-3
		l12-13.6c2.6-3,2.9-7.4,0.7-10.7l-11.1-16.2c-1.6-2.4-4.3-3.8-7.2-3.8h-9.1C448.2,416.7,445.6,418,443.9,420.2z"/>
	<path class="st2" d="M459.1,469.4h-0.7l-11.3-0.5c-5.4-0.2-10.1-3.5-12.3-8.4l-7.1-15.8c-2.1-4.7-1.5-10.2,1.6-14.3l10.2-13.5l0,0
		c2.7-3.6,6.9-5.7,11.4-5.7h9c4.7,0,9,2.3,11.7,6.2l11.1,16.2c3.7,5.3,3.2,12.5-1,17.4l-12,13.6C467,467.7,463.2,469.4,459.1,469.4z
		 M448.3,423.5L438.1,437c-0.7,1-0.9,2.2-0.4,3.3l7.1,15.8c0.5,1.1,1.6,1.9,2.8,1.9l11.3,0.5c1,0.1,2-0.4,2.6-1.1l12-13.6
		c1-1.1,1.1-2.8,0.3-4l-11.1-16.2c-0.6-0.9-1.6-1.5-2.7-1.5h-9C449.9,422.2,448.9,422.7,448.3,423.5L448.3,423.5L448.3,423.5z"/>
	<path class="st2" d="M441.1,765.5c-2.6,0-4.8-1.8-5.3-4.3c-23.1-111-5.3-208-5.2-209c0.6-3,3.4-4.9,6.4-4.4c3,0.6,4.9,3.4,4.3,6.4
		c-0.2,1-17.5,96,5.1,204.8c0.6,2.9-1.3,5.8-4.2,6.4C441.9,765.5,441.5,765.5,441.1,765.5z"/>
	<g class="st1">
		<path class="st2" d="M640.4,411L640.4,411c-5.1,5-10.4,9.7-16,14.1c-41.7,33.4-94.2,50.5-147.6,48c-4.2-0.2-8.4-0.5-12.6-0.9
			c-21.4-2.2-42.3-7.6-62.1-16c-1.7-0.7-3.3-1.4-5-2.2c-8-3.5-15.7-7.6-23.2-12.1c-1-0.6-1.9-1.1-2.9-1.7c-3.3-2.1-6.6-4.2-9.8-6.5
			c-6.4-4.5-12.6-9.3-18.6-14.5c-11.7-10.2-22.3-21.7-31.6-34.1c19.5,10.7,43.1,19.9,73.1,26.6c12.1-33.7,26.4-66.4,43-98.1
			l184.4,11.7C622.8,354.7,632.4,383.4,640.4,411z"/>
	</g>
	<path class="st0" d="M280.5,298.8c12.6,35.3,34,66.7,62.2,91.3c5.9,5.2,12.1,10,18.6,14.5c3.2,2.2,6.4,4.4,9.8,6.5
		c9.9,6.2,20.3,11.5,31,16.1c19.8,8.4,40.7,13.8,62.1,16c4.2,0.4,8.4,0.7,12.6,0.9c79.4,3.7,154.5-35.8,196.5-103.3
		c64-102.8,32.6-238.1-70.2-302.2c-19.3-12-40.3-21-62.3-26.5c-2.5-0.7-5-1.2-7.6-1.8c-6.8-1.5-13.6-2.6-20.4-3.4
		c-31.4-3.6-63.3-0.5-93.4,9.3c-4.7,1.5-9.4,3.2-14.1,5.1C295.9,65.3,240.8,187.8,280.5,298.8z"/>
	<path class="st2" d="M486.8,444.8c-3.3,0-6.7-0.1-10-0.2c-4.2-0.2-8.4-0.5-12.6-0.9c-21.4-2.2-42.4-7.6-62.3-16
		c-10.8-4.5-21.2-9.9-31.1-16.1c-3.6-2.3-6.9-4.4-9.8-6.5c-6.5-4.5-12.7-9.4-18.6-14.5c-91.5-79.9-100.9-218.8-21-310.3
		c22.8-26.1,51.5-46.5,83.6-59.4c4.6-1.8,9.3-3.6,14.1-5.1c30.2-9.8,62.1-13,93.6-9.3c6.8,0.8,13.7,2,20.5,3.4
		c2.7,0.6,5.2,1.1,7.6,1.8c22.1,5.6,43.2,14.5,62.5,26.6c102.9,64.1,134.5,200,70.4,302.9C633.5,405.6,562.9,444.8,486.8,444.8z
		 M487.4,6c-23,0-46,3.6-67.9,10.7c-4.8,1.5-9.5,3.3-14,5.1C293.3,66.9,239,194.3,284,306.5c12.9,32,33.1,60.5,59.1,83.2
		c5.9,5.2,12.1,10,18.5,14.5c2.9,2,6.1,4.2,9.7,6.5c9.9,6.1,20.3,11.5,31,16c19.8,8.3,40.6,13.7,62,15.9c4.2,0.4,8.4,0.7,12.5,0.9
		c3.3,0.1,6.7,0.2,10,0.2c75.7,0,146-39,186-103.2C736.7,238,705.3,102.8,602.8,39c-19.2-12-40.2-20.9-62.2-26.5
		c-2.4-0.6-4.9-1.2-7.6-1.8c-6.8-1.5-13.6-2.6-20.4-3.4C504.3,6.4,495.8,6,487.4,6z"/>
	<g class="st1">
		<path class="st2" d="M673.3,340.8c-42,67.5-117.1,106.9-196.5,103.2c-4.2-0.2-8.4-0.5-12.6-0.9c-33.1-3.5-64.9-14.4-93.1-32
			c-3.3-2.1-6.6-4.2-9.8-6.5c-6.4-4.5-12.7-9.4-18.6-14.5c-28.2-24.6-49.7-56-62.2-91.3c-6.8-19-10.9-38.9-12.3-59
			c15.7,40.8,43.2,76,79,101c3.2,2.2,6.4,4.4,9.8,6.5c28.2,17.6,60.1,28.6,93.1,32c4.2,0.4,8.4,0.7,12.6,0.9
			c121.1,5.6,223.8-88,229.4-209c0.4-8.4,0.3-16.8-0.3-25.2C716.6,210.2,709.7,282.3,673.3,340.8z"/>
	</g>
	<path class="st2" d="M486.8,448.4c-3.4,0-6.8-0.1-10.2-0.2c-4.3-0.2-8.6-0.5-12.8-1c-21.8-2.3-43.1-7.7-63.3-16.2
		c-11-4.6-21.5-10.1-31.6-16.4c-3.7-2.3-7-4.5-10-6.6c-6.6-4.6-12.9-9.5-18.9-14.8c-93-81.2-102.6-222.4-21.4-315.5
		c23.2-26.6,52.4-47.3,85.1-60.4c4.6-1.9,9.5-3.6,14.4-5.2c30.7-9.9,63.1-13.2,95.1-9.5c6.9,0.8,14,2,20.8,3.5
		c2.8,0.6,5.3,1.2,7.8,1.8c22.4,5.7,43.8,14.8,63.5,27c104.7,65.2,136.8,203.4,71.6,308C636,408.6,564.1,448.4,486.8,448.4z
		 M487.4,9.6c-22.7,0-45.2,3.6-66.7,10.5c-4.7,1.5-9.4,3.2-13.8,5C299.5,68.3,245.5,188.5,284.5,297.4l0,0
		c12.3,34.6,33.4,65.4,61,89.5c5.8,5.1,11.9,9.8,18.2,14.2c2.9,2,6,4.1,9.6,6.4c9.7,6,19.9,11.3,30.4,15.8
		c19.4,8.2,39.9,13.5,60.9,15.7c4.1,0.4,8.2,0.7,12.3,0.9c3.3,0.1,6.6,0.2,9.8,0.2c74.4,0,143.5-38.4,182.8-101.5
		c62.7-100.7,31.8-233.6-68.9-296.4c-18.9-11.8-39.5-20.6-61.1-26c-2.4-0.6-4.8-1.2-7.4-1.7c-6.7-1.4-13.4-2.5-20.1-3.3
		C504,10.1,495.7,9.7,487.4,9.6L487.4,9.6z"/>
	<path class="st2" d="M486.8,449.7c-3.4,0-6.8-0.1-10.3-0.2c-4.3-0.2-8.6-0.5-12.9-1c-21.9-2.3-43.4-7.8-63.7-16.4
		c-11-4.6-21.6-10.1-31.8-16.5c-3.7-2.4-7-4.5-10-6.6c-6.6-4.6-12.9-9.6-19-14.9c-28.9-25.2-50.9-57.4-63.8-93.5l0,0
		C234.7,186.9,291.1,61.3,403.2,16.2c4.7-1.9,9.5-3.6,14.5-5.2c30.8-10,63.5-13.2,95.7-9.5c7,0.8,14,2,21,3.5
		c2.8,0.6,5.3,1.2,7.8,1.8c22.6,5.7,44.1,14.9,63.8,27.2c105.2,65.5,137.5,204.5,72,309.7C636.8,409.6,564.6,449.7,486.8,449.7z
		 M487.4,10.9c-22.5,0-44.9,3.5-66.4,10.5c-4.7,1.5-9.3,3.2-13.7,5C300.6,69.3,246.9,188.8,285.7,297l0,0c12.3,34.4,33.2,65,60.7,89
		c5.8,5,11.8,9.8,18.1,14.2c2.9,2,6,4.1,9.5,6.3c9.6,6,19.8,11.2,30.2,15.6c19.3,8.1,39.7,13.4,60.6,15.6c4.1,0.4,8.2,0.7,12.3,0.9
		c3.3,0.1,6.5,0.2,9.8,0.2c74,0,142.7-38.2,181.8-100.9c62.3-100.1,31.6-232.3-68.5-294.7c-18.8-11.7-39.3-20.5-60.8-25.9
		c-2.4-0.6-4.8-1.2-7.4-1.7c-6.6-1.4-13.3-2.5-20-3.3C503.8,11.3,495.6,10.9,487.4,10.9L487.4,10.9z"/>
	<path class="st2" d="M306.1,348.9c113.3,108.4,295.8,71.8,328.6-80C657,165.6,573.1,64,472.6,49c-73.2-11-149.4,10.3-197.5,119.3
		c0,0-13.8,51.5-5,88.6s23.6,71.6,23.6,71.6L306.1,348.9z"/>
	<path class="st11" d="M634.7,268.9c-32.8,151.8-215.3,188.4-328.6,80l-2.5-4.1c135.9,46.5,288.1-15.6,324.1-168.5
		C638.4,205.3,641.6,237,634.7,268.9z"/>
	<path class="st2" d="M457.3,439.2c-19,0-38-2.3-56.4-6.8c-0.3-0.1-0.6-0.2-0.8-0.3c-11-4.6-21.7-10.1-31.8-16.5
		c-3.7-2.4-7-4.5-10-6.6c-6.6-4.6-12.9-9.6-19-14.9c-28.9-25.2-50.9-57.4-63.8-93.5l0,0C237.7,195.3,283.3,78.2,382.2,26
		c0.3-0.2,0.7-0.3,1-0.4c27.9-7.9,59-9.4,92.6-4.3c59.8,9,117,45.5,153.1,97.6c33.1,47.9,45.1,103.4,33.7,156.1
		c-12.3,57.3-43.6,103.1-90.4,132.3C538.5,428.3,498.5,439.2,457.3,439.2z M403.9,421.9c57,13.8,116.2,5.1,162.5-23.9
		c44.2-27.7,73.8-71.1,85.6-125.4c10.8-49.8-0.6-102.2-32-147.6c-34.4-49.7-88.8-84.5-145.7-93c-31.8-4.8-61.2-3.5-87.4,3.9
		c-93.9,49.9-136.9,161-101.1,261.1l0,0c12.3,34.4,33.2,65,60.7,89c5.8,5,11.8,9.8,18.1,14.2c2.9,2,6,4.1,9.5,6.3
		C383.5,412.4,393.5,417.6,403.9,421.9L403.9,421.9z"/>
	<path class="st2" d="M456.9,416.8c-55.4,0-111.2-22.4-154.6-64c-0.3-0.3-0.6-0.7-0.9-1.1L289,331.3c-0.1-0.2-0.2-0.4-0.4-0.7
		c-0.6-1.4-15.1-35.4-23.9-72.5c-9-38,4.5-89.1,5.1-91.3c0.1-0.3,0.2-0.5,0.3-0.8c42-95.2,110.4-136.4,203.3-122.4
		c53.4,8,104.4,40.6,136.6,87.1C639.5,173.5,650.2,223,640,270c-14.7,68-60.1,118.3-124.6,138.1
		C496.5,413.9,476.8,416.8,456.9,416.8z M310.4,345.4c56,53.3,133.3,73.3,201.9,52.3c60.6-18.6,103.3-66,117.1-130
		c9.5-44.1-0.6-90.6-28.4-130.9c-30.5-44.1-78.8-75-129.2-82.5C384.5,41.3,320,80.2,280.2,170c-1.2,4.8-12.9,51.9-4.9,85.5
		c8.1,34.2,21.7,66.7,23.2,70.4L310.4,345.4z"/>
	<path class="st0" d="M732.3,274.2c-4,43.1-32.8,76.9-64.3,75.4s-53.8-37.5-49.9-80.6s32.8-76.9,64.3-75.4S736.3,231.1,732.3,274.2z
		"/>
	<path class="st2" d="M669.9,355.1c-0.7,0-1.4,0-2.2,0c-13.7-0.6-26.2-7-36.1-18.3c-14.5-16.7-21.4-41.5-19-68.2
		c4.2-45.9,35.6-81.9,69.9-80.4c13.7,0.6,26.2,7,36.1,18.3c14.5,16.7,21.4,41.5,19,68.2C733.6,319.6,703.4,355.1,669.9,355.1z
		 M680.5,199c-27.9,0-53.3,31.2-56.9,70.5c-2.2,23.4,4,45.9,16.3,60.1c7.9,9.1,17.7,14.1,28.4,14.6c28.6,1.3,54.9-30.3,58.6-70.5
		l5.4,0.5l-5.4-0.5c2.2-23.4-4-45.9-16.3-60.1c-7.9-9.1-17.7-14.1-28.4-14.6C681.6,199,681.1,199,680.5,199z"/>
	<path class="st0" d="M733.3,306c-13.4,30.9-42.3,44.3-64.5,29.9s-29.5-51.2-16.1-82.2s42.3-44.3,64.5-29.9
		C739.4,238.3,746.6,275,733.3,306z"/>
	<path class="st2" d="M688,342.2c-7,0-13.8-2.1-19.6-5.9c-22.5-14.6-29.8-51.8-16.3-82.9c7.5-17.4,20.2-30,34.8-34.4
		c10.3-3.3,21.6-1.7,30.6,4.3c22.5,14.6,29.8,51.8,16.3,82.9c-7.5,17.4-20.2,30-34.8,34.4C695.4,341.6,691.7,342.2,688,342.2z
		 M697.9,218.5c-3.6,0-7.2,0.6-10.7,1.6c-14.3,4.3-26.7,16.6-34.1,33.7c-13.2,30.6-6.1,67.2,15.9,81.5c8.7,5.8,19.6,7.3,29.6,4.1
		c14.3-4.3,26.7-16.6,34.1-33.7c13.2-30.6,6.1-67.2-15.9-81.5C711.3,220.5,704.7,218.5,697.9,218.5z"/>
	<g class="st1">
		<path class="st2" d="M646.8,302c-1.7-11.8-0.5-23.8,3.4-35c6.4,26.2,28.5,38.7,51.5,28.1c14.8-6.9,26.6-21.9,32.5-39.2
			c0.4,1.7,0.7,3.4,1,5.2c4.6,29.7-11.5,62.9-35.9,74.3S651.4,331.7,646.8,302z"/>
	</g>
	<path class="st2" d="M688.3,347.2H687c-10.2-0.4-19.5-5.1-27-13.6c-11.7-13.4-17.4-34.9-15.3-57.5c3.7-37.9,28.2-67.9,54.9-66.9
		c10.2,0.4,19.5,5.1,27,13.6c11.7,13.4,17.4,34.9,15.3,57.6l-5.4-0.5l5.4,0.5C738.3,317.6,714.4,347.2,688.3,347.2z M698.3,220
		c-20.6,0-39.6,25.3-42.7,57.1c-1.9,19.7,2.8,38.1,12.6,49.3c5.4,6.2,12.1,9.6,19.2,9.9h0.9c20.6,0,39.6-25.3,42.7-57.1l0,0
		c1.9-19.7-2.8-38.1-12.6-49.3c-5.4-6.2-12.1-9.6-19.2-9.9H698.3z"/>
	<g class="st10">
		<path class="st0" d="M518.5,94.9c0,0-99.3-8.5-161.9,40.1l-0.2,0.1c-13.1,10.2-23.3,23.8-29.5,39.3c-6.4,15.8-10.6,32.4-12.6,49.3
			c-5.5,41.3-0.4,61.6-0.4,61.6c-20.6-24.9-30.5-51.4-26.3-85.8c0.4-3.4,1-6.9,1.7-10.4c0.2-0.8,0.3-1.6,0.5-2.4l0,0
			c2.4-9,5.4-17.8,8.9-26.5c12.3-30.6,35.8-69.6,78.1-83.4C455.9,50.7,522.5,91,518.5,94.9z"/>
	</g>
	<g class="st10">
		
			<ellipse transform="matrix(0.9916 -0.129 0.129 0.9916 -21.7573 76.3145)" class="st0" cx="578.4" cy="206.2" rx="29.3" ry="34.2"/>
	</g>
	<g class="st10">
		
			<ellipse transform="matrix(0.9772 -0.2122 0.2122 0.9772 -43.4588 130.5128)" class="st0" cx="586.4" cy="267.7" rx="12.1" ry="14.1"/>
	</g>
	<path class="st2" d="M435.2,563.2c-1.6,0-3.1-0.7-4.1-1.9l-47.1-54.6c-1.2-1.4-1.6-3.4-1.1-5.2l5.7-17.9l-14.6-8
		c-1.7-1-2.8-2.8-2.8-4.8v-56.4c0-3,2.4-5.4,5.4-5.4s5.4,2.4,5.4,5.4l0,0v53.2l15.7,8.6c2.3,1.2,3.4,3.9,2.6,6.4l-6.1,19.2
		l42.6,49.5l89.9-31l3.5-27.9c0.3-2.1,1.7-3.8,3.7-4.5l60.5-20.3l2.7-55c0.1-3,2.7-5.3,5.7-5.2c3,0.1,5.3,2.7,5.2,5.7l0,0l-2.9,58.8
		c-0.1,2.2-1.6,4.2-3.7,4.9l-60.7,20.3l-3.5,27.9c-0.3,2.1-1.7,3.8-3.6,4.5L437,562.8C436.5,563,435.9,563.1,435.2,563.2z"/>
	<polygon class="st8" points="464.4,462.2 469.8,517 436,553.2 423.7,507.1 440.9,460.1 	"/>
	<path class="st2" d="M436,558.6c-2.5,0-4.6-1.6-5.3-4l-12.3-46c-0.3-1.1-0.2-2.2,0.1-3.3l17.2-47.1c0.8-2.3,3.1-3.8,5.6-3.5
		l23.6,2.1c2.6,0.2,4.7,2.3,4.9,4.9l5.4,54.8c0.2,1.6-0.4,3.1-1.4,4.3l-33.9,36.1C438.9,558,437.5,558.6,436,558.6z M429.4,507.4
		l9.3,34.9l25.4-27.2l-4.7-47.9l-14.9-1.3L429.4,507.4z"/>
	<path class="st2" d="M479.8,485.3c-1.7,0-3.3-0.8-4.3-2.2l-14.1-18.8c-1.8-2.4-1.3-5.8,1.1-7.6c2.4-1.8,5.8-1.3,7.6,1.1l0,0
		l11.4,15.1l45.1-23.3c2.7-1.4,6-0.3,7.3,2.3c1.4,2.7,0.3,6-2.3,7.3l-49.2,25.4C481.5,485.1,480.7,485.3,479.8,485.3z"/>
	<path class="st2" d="M426.5,476.1c-1.5,0-3-0.6-4-1.7l-17.6-18.6c-2.1-2.2-2-5.6,0.2-7.7c2.2-2.1,5.6-2,7.7,0.2c0,0,0,0,0.1,0.1
		l14.6,15.4l9.7-6c2.6-1.6,5.9-0.8,7.5,1.8s0.8,5.9-1.8,7.5l-13.5,8.4C428.5,475.8,427.5,476.1,426.5,476.1z"/>
	<circle class="st2" cx="451.3" cy="584.3" r="8.5"/>
	<circle class="st2" cx="451.3" cy="630" r="8.5"/>
	<circle class="st2" cx="452.7" cy="677.3" r="8.5"/>
</g>
</svg>
