<svg xmlns="http://www.w3.org/2000/svg" viewBox="0 0 157.72 77.38"><title>Untitled-2</title><path d="M157.72,26.55c-6.92-1.34-13.83-2.7-20.81-4L74.71,10.45,0,25,76.5,0Z"/><path d="M157.72,42.81c-6.92-1.34-13.83-2.7-20.81-4L74.71,26.7,0,41.26l76.5-25Z"/><path d="M157.72,59.06c-6.92-1.34-13.83-2.7-20.81-4L74.71,43,0,57.51l76.5-25Z"/><path d="M39.78,77.36a3.07,3.07,0,0,1-2.58-1.1,4.88,4.88,0,0,1-.86-3.17V72.73h0.74v0.36a5.5,5.5,0,0,0,.26,1.9A2.69,2.69,0,0,0,38,76a1.91,1.91,0,0,0,.87.47,4.14,4.14,0,0,0,.91.11,2.39,2.39,0,0,0,2-.9,4,4,0,0,0,.71-2.51,3.18,3.18,0,0,0-.3-1.45,3.4,3.4,0,0,0-.72-1,3.55,3.55,0,0,0-.87-0.6l-0.74-.34-0.41-.17q-0.36-.14-0.88-0.42a4.19,4.19,0,0,1-1-.77,4.55,4.55,0,0,1-.85-1.22,4,4,0,0,1-.36-1.79,5,5,0,0,1,.84-3,3.07,3.07,0,0,1,2.61-1.3,3.15,3.15,0,0,1,2.61,1.13,5,5,0,0,1,.86,3.17v0.38H42.48V65.48a4.38,4.38,0,0,0-.69-2.71,2.41,2.41,0,0,0-2-.82,2.28,2.28,0,0,0-2,1,4.22,4.22,0,0,0-.72,2.54,3.37,3.37,0,0,0,.29,1.46,3.5,3.5,0,0,0,.71,1,3.76,3.76,0,0,0,.87.65,8.74,8.74,0,0,0,.81.38l0.38,0.17q0.31,0.12.84,0.37a4.15,4.15,0,0,1,1,.72,4.3,4.3,0,0,1,.87,1.19,3.86,3.86,0,0,1,.37,1.78,4.7,4.7,0,0,1-.86,2.93A3.09,3.09,0,0,1,39.78,77.36Z"/><path d="M45.42,77.38H44.68V61.21h2.89a3.56,3.56,0,0,1,2.85,1.06,4.75,4.75,0,0,1,.91,3.17,4.75,4.75,0,0,1-.91,3.17,3.55,3.55,0,0,1-2.85,1.06H45.42v7.73Zm0-8.47h2.15a2.91,2.91,0,0,0,2.29-.82,4.16,4.16,0,0,0,.69-2.66,4.09,4.09,0,0,0-.69-2.68,2.89,2.89,0,0,0-2.29-.8H45.42v7Z"/><path d="M56.21,77.38A4.43,4.43,0,0,1,55,77.21a2.59,2.59,0,0,1-1.11-.65,3.45,3.45,0,0,1-.81-1.31,6.3,6.3,0,0,1-.31-2.17V65.48a5.16,5.16,0,0,1,.84-3.17,3.11,3.11,0,0,1,2.58-1.1,3.07,3.07,0,0,1,2.58,1.1,5,5,0,0,1,.86,3.17v7.61a6.3,6.3,0,0,1-.31,2.17,3.45,3.45,0,0,1-.81,1.31,2.59,2.59,0,0,1-1.11.65A4.52,4.52,0,0,1,56.21,77.38Zm0-15.43a2.31,2.31,0,0,0-2,.84,4.33,4.33,0,0,0-.69,2.69v7.61a4.38,4.38,0,0,0,.69,2.71,2.34,2.34,0,0,0,2,.84,2.46,2.46,0,0,0,2-.84,4.37,4.37,0,0,0,.67-2.71V65.48a4.32,4.32,0,0,0-.67-2.69A2.41,2.41,0,0,0,56.21,61.95Z"/><path d="M66.92,70A3.77,3.77,0,0,1,68,72.87v4.49H67.23V72.87a3.1,3.1,0,0,0-.79-2.27,3,3,0,0,0-2.22-.8H62.06v7.56H61.32V61.18h2.89a3.54,3.54,0,0,1,2.83,1,4.92,4.92,0,0,1,.9,3.25,4.93,4.93,0,0,1-.88,3.22,3,3,0,0,1-1,.74A2.9,2.9,0,0,1,66.92,70Zm-2.7-1a2.79,2.79,0,0,0,2.27-.82,4.25,4.25,0,0,0,.72-2.74,4.19,4.19,0,0,0-.69-2.71,2.86,2.86,0,0,0-2.29-.82H62.06V69h2.15Z"/><path d="M78,61.95H74.09V77.36H73.35V61.95H69.5V61.18H78v0.77Z"/><path d="M83.87,69.29a2.64,2.64,0,0,1,.88.7,5,5,0,0,1,.84,3.17,5,5,0,0,1-.84,3.17A3.35,3.35,0,0,1,82,77.38H79.37V61.21H82a3.36,3.36,0,0,1,2.73,1.06,5,5,0,0,1,.84,3.17,5,5,0,0,1-.84,3.14,2.46,2.46,0,0,1-.41.41A3.54,3.54,0,0,1,83.87,69.29Zm-3.73-.38H82a2.55,2.55,0,0,0,2.13-.82,4.21,4.21,0,0,0,.67-2.66,4.32,4.32,0,0,0-.65-2.68,2.6,2.6,0,0,0-2.15-.8H80.14v7ZM82,76.64a2.6,2.6,0,0,0,2.15-.8,4.32,4.32,0,0,0,.65-2.68,4.26,4.26,0,0,0-.67-2.69A2.56,2.56,0,0,0,82,69.65H80.14v7H82Z"/><path d="M92.86,70a3.77,3.77,0,0,1,1.08,2.86v4.49H93.17V72.87a3.1,3.1,0,0,0-.79-2.27,3,3,0,0,0-2.22-.8H88v7.56H87.26V61.18h2.89a3.54,3.54,0,0,1,2.83,1,4.92,4.92,0,0,1,.9,3.25A4.93,4.93,0,0,1,93,68.69a3,3,0,0,1-1,.74A2.9,2.9,0,0,1,92.86,70Zm-2.7-1a2.79,2.79,0,0,0,2.27-.82,4.25,4.25,0,0,0,.72-2.74,4.19,4.19,0,0,0-.69-2.71,2.86,2.86,0,0,0-2.29-.82H88V69h2.15Z"/><path d="M96.32,77.38H95.56l1.27-5.62V71.69l2.44-10.49h0.6l3.68,16.18h-0.77l-1.1-4.94H97.42Zm3.23-14.14-1.94,8.45h3.9Z"/><path d="M105.67,77.38H104.9V61.21h0.65l5.55,13.85V61.21h0.77V77.38h-0.62l-5.57-13.85V77.38Z"/><path d="M116.33,77.38h-2.75V61.21h2.75a3.44,3.44,0,0,1,2.85,1.15,4.93,4.93,0,0,1,.88,3.22V73a4.93,4.93,0,0,1-.88,3.22A3.44,3.44,0,0,1,116.33,77.38Zm-2-.74h2a2.73,2.73,0,0,0,2.26-.88A4.36,4.36,0,0,0,119.3,73V65.57a4.36,4.36,0,0,0-.71-2.75,2.73,2.73,0,0,0-2.26-.88h-2V76.64Z"/></svg>